<svg width="640" height="640" viewBox="0 0 640 640" fill="none" xmlns="http://www.w3.org/2000/svg">
<path d="M223.93 9.20801L223.947 9.20898L223.966 9.20996C236.235 9.82172 293.219 12.263 350.533 14.7012H350.547L350.562 14.7021C379.202 15.819 405.729 17.0367 425.384 18.0762C435.216 18.5961 443.302 19.0699 449.063 19.4629C451.951 19.6598 454.211 19.8336 455.798 19.9795C455.982 19.9964 456.154 20.0147 456.314 20.0303C457.064 20.725 458.077 21.7113 459.354 23.0039C462.234 25.9209 466.184 30.1052 470.947 35.2764C479.271 44.312 489.945 56.2165 501.464 69.3115L506.448 74.9922C533.104 105.676 572.6 151.208 594.257 176.012C605.061 188.386 614.91 199.84 622.073 208.293C624.833 211.55 627.184 214.349 629.033 216.577C627.417 217.718 625.517 218.993 623.45 220.31L610.866 228.208L607.349 230.416L607.13 234.563L605.728 261.175C604.926 275.804 602.32 322.946 599.915 366.031L595.454 441.726L550.16 497.658C524.249 529.632 497.45 562.884 490.07 571.782L490.039 571.821L490.007 571.86C469.934 596.689 457.882 611.482 450.276 620.374C446.465 624.83 443.896 627.655 442.067 629.473C440.192 631.337 439.464 631.76 439.357 631.816L439.292 631.852L439.227 631.888C439.208 631.899 439.217 631.961 438.627 631.99C437.718 632.035 435.994 631.94 432.591 631.358C425.799 630.199 414.355 627.49 393.491 622.381H393.492C315.147 603.018 266.572 591.087 238.717 584.272L217.434 579.077C150.855 562.811 110.525 552.868 86.5879 546.636C74.5936 543.513 66.8623 541.359 62.0469 539.833C60.6194 539.381 59.5188 539.001 58.6807 538.693C58.3902 536.835 58.0954 534.161 57.8115 530.659C57.2258 523.434 56.7287 513.27 56.3291 500.812V500.808L56.1738 496.395C55.2849 472.513 52.7419 422.054 50.1816 375.615C48.8152 350.831 47.4414 327.152 46.3086 309.215C45.7424 300.25 45.2349 292.696 44.8174 287.148C44.609 284.379 44.4212 282.074 44.2568 280.331C44.1298 278.984 43.9752 277.488 43.7715 276.435C43.5192 274.917 42.9524 272.601 41.1895 270.451C39.3402 268.197 36.9637 267.066 34.9609 266.41C31.4219 265.25 26.0356 264.69 18.8037 264.015L18.7754 264.012L18.7471 264.01L17.0479 263.856C15.5388 263.716 14.0879 263.564 12.7227 263.409C15.4761 259.417 19.0352 254.487 23.0039 249.204C32.9619 236.223 48.2062 215.944 57.6719 203.692L57.6943 203.663L57.7158 203.634C76.3544 179.047 88.7943 162.774 149.345 82.6807C171.82 52.9753 194.24 23.344 199.224 16.876L199.252 16.8398L199.28 16.8027L205.736 8.21973L223.93 9.20801Z" fill="#9C0101" stroke="black" stroke-width="16"/>
</svg>
