<svg width="640" height="640" viewBox="0 0 640 640" fill="none" xmlns="http://www.w3.org/2000/svg">
<path d="M223.926 9.21094L223.944 9.21191L223.962 9.21289C236.234 9.82625 293.217 12.2656 350.534 14.7021L350.548 14.7031H350.562C379.204 15.8216 405.731 17.0392 425.386 18.0781C435.217 18.5978 443.303 19.0717 449.064 19.4648C451.952 19.6619 454.211 19.8353 455.797 19.9814C455.981 19.9984 456.153 20.0156 456.313 20.0312C457.063 20.7257 458.076 21.7127 459.353 23.0059C462.232 25.9222 466.183 30.1053 470.947 35.2764C479.272 44.3116 489.947 56.2163 501.468 69.3125L506.453 74.9932C533.105 105.682 572.605 151.209 594.255 176.011V176.012C605.06 188.385 614.911 199.841 622.075 208.294C624.836 211.551 627.187 214.35 629.036 216.578C627.433 217.709 625.549 218.973 623.5 220.279L610.868 228.212L607.352 230.42L607.133 234.566L605.732 261.171C604.926 275.808 602.319 322.949 599.915 366.032L595.453 441.726L550.161 497.659C524.253 529.631 497.45 562.889 490.072 571.783L490.04 571.822L490.009 571.861C469.936 596.689 457.884 611.481 450.278 620.374C446.467 624.83 443.898 627.656 442.069 629.474C440.195 631.337 439.468 631.76 439.362 631.816L439.295 631.852L439.229 631.888C439.21 631.898 439.222 631.961 438.63 631.99C437.721 632.035 435.996 631.939 432.593 631.357C426.648 630.342 417.14 628.141 400.873 624.183L393.479 622.377C289.033 596.566 237.503 583.963 217.44 579.076H217.441C150.86 562.809 110.526 552.866 86.5869 546.635C74.5922 543.512 66.8606 541.359 62.0449 539.833C60.6191 539.381 59.5193 539.003 58.6816 538.695C58.3915 536.837 58.0962 534.162 57.8125 530.66C57.2271 523.435 56.731 513.27 56.333 500.812L56.332 500.806L56.1768 496.394C55.2851 472.515 52.7405 422.056 50.1797 375.616C48.813 350.831 47.4396 327.151 46.3066 309.214C45.7404 300.249 45.233 292.695 44.8154 287.146C44.6069 284.377 44.4184 282.073 44.2539 280.329C44.1267 278.98 43.9721 277.481 43.7676 276.426C43.5159 274.907 42.949 272.598 41.1924 270.454C39.3429 268.197 36.965 267.066 34.9629 266.41C31.4239 265.251 26.0367 264.69 18.8027 264.016L18.7734 264.013L18.7451 264.011L17.0459 263.858C15.5376 263.718 14.0874 263.567 12.7227 263.412C15.4763 259.418 19.0351 254.486 23.0049 249.202C32.9597 236.228 48.2036 215.944 57.6729 203.696L57.6973 203.665L57.7207 203.634C76.3498 179.048 88.8 162.769 149.349 82.6797L149.348 82.6787C171.821 52.9715 194.239 23.3472 199.223 16.8818L199.279 16.8057L205.735 8.21973L223.926 9.21094Z" fill="#005A05" stroke="black" stroke-width="16"/>
</svg>
