<?xml version="1.0" standalone="no"?>
<!DOCTYPE svg PUBLIC "-//W3C//DTD SVG 20010904//EN"
 "http://www.w3.org/TR/2001/REC-SVG-20010904/DTD/svg10.dtd">
<svg version="1.0" xmlns="http://www.w3.org/2000/svg"
 width="793.000000pt" height="151.000000pt" viewBox="0 0 793.000000 151.000000"
 preserveAspectRatio="xMidYMid meet">

<g transform="translate(0.000000,151.000000) scale(0.100000,-0.100000)"
fill="#db0505ff" stroke="none">
<path d="M771 1147 c-415 -199 -759 -370 -765 -379 -8 -13 -7 -21 4 -32 25
-24 1519 -738 1538 -734 15 3 17 26 20 256 l2 252 2202 0 2202 0 171 -170 171
-170 805 2 c779 3 804 4 807 22 3 14 -70 93 -267 290 l-271 271 270 270 c197
197 270 275 268 290 -3 20 -12 20 -807 23 l-805 2 -171 -170 -171 -170 -2202
0 -2202 0 -2 253 c-3 244 -4 252 -23 254 -11 2 -359 -160 -774 -360z"/>
</g>
</svg>