<?xml version="1.0" standalone="no"?>
<!DOCTYPE svg PUBLIC "-//W3C//DTD SVG 20010904//EN"
 "http://www.w3.org/TR/2001/REC-SVG-20010904/DTD/svg10.dtd">
<svg version="1.0" xmlns="http://www.w3.org/2000/svg"
 width="235.000000pt" height="214.000000pt" viewBox="0 0 235.000000 214.000000"
 preserveAspectRatio="xMidYMid meet">

<g transform="translate(0.000000,214.000000) scale(0.100000,-0.100000)"
fill="#000000" stroke="none">
<path d="M1165 2033 c-167 -21 -505 -104 -547 -134 -15 -10 -38 -19 -51 -19
-31 0 -57 -29 -57 -66 -1 -56 -19 -108 -58 -163 -53 -76 -62 -108 -62 -218 0
-112 11 -139 75 -183 39 -27 45 -36 45 -66 0 -26 -9 -45 -41 -79 l-40 -44 2
-121 2 -121 -35 -37 c-81 -84 -108 -190 -115 -449 -4 -146 -3 -196 7 -208 11
-13 82 -15 543 -15 335 0 555 4 596 11 l66 11 108 109 c103 105 107 111 107
152 0 24 -7 52 -15 63 -21 28 -19 36 21 83 20 23 40 57 43 74 6 29 11 32 48
35 54 4 96 50 119 128 l16 55 45 -3 c43 -3 46 -5 59 -43 23 -70 70 -92 115
-56 23 18 24 25 25 154 0 93 4 140 13 151 9 11 10 40 5 110 -6 82 -10 98 -30
117 -32 30 -30 54 7 97 47 54 69 108 69 178 0 68 -10 84 -56 84 -27 0 -41 -10
-89 -64 -31 -36 -105 -107 -163 -158 -151 -131 -281 -258 -300 -293 -8 -16
-28 -68 -43 -115 -24 -74 -30 -85 -52 -88 -14 -2 -43 -18 -65 -37 -23 -21 -52
-35 -71 -37 -22 -2 -54 -22 -111 -70 -44 -37 -88 -68 -98 -68 -23 0 -82 60
-82 83 0 12 8 17 26 17 38 0 89 27 104 55 12 23 10 81 -6 133 -5 18 -2 22 14
22 16 0 22 -9 27 -40 11 -64 34 -85 91 -82 41 1 54 7 77 32 37 41 39 115 4
148 -25 23 -75 29 -107 12 -12 -7 -30 -5 -57 4 -48 16 -55 47 -20 85 14 14 32
40 40 57 13 25 24 33 59 38 62 10 78 29 78 93 0 47 -4 59 -29 84 -16 16 -39
29 -50 29 -24 0 -48 33 -57 76 -4 24 0 34 25 58 17 17 31 39 31 51 0 22 -28
55 -46 55 -6 0 -19 6 -29 14 -17 12 -15 19 43 129 61 114 74 161 50 185 -11
11 -149 15 -223 5z m-544 -229 c68 -34 175 -60 283 -68 109 -9 129 -17 120
-52 l-7 -26 42 28 c31 20 45 24 53 16 8 -8 7 -18 -6 -36 -21 -34 -21 -36 12
-36 15 -1 51 -11 81 -23 l54 -23 13 -64 c14 -68 46 -110 84 -110 28 0 50 -28
50 -65 0 -30 -3 -33 -37 -39 -65 -12 -73 -16 -93 -54 -36 -69 -37 -69 -60 -39
-12 15 -26 27 -31 27 -14 0 -11 -36 7 -74 32 -67 -8 -126 -126 -184 -64 -32
-75 -41 -78 -66 -3 -28 -5 -28 -53 -24 -55 6 -81 24 -100 71 -15 37 -26 47
-55 47 -26 0 -83 59 -86 90 -3 22 2 25 40 31 48 6 62 20 62 62 l0 28 -30 -17
c-25 -15 -33 -16 -53 -5 -76 41 -107 280 -40 306 9 3 33 0 55 -6 24 -6 44 -7
50 -1 13 13 -25 42 -66 49 -41 6 -64 -10 -111 -77 -26 -37 -26 -38 -10 -76 10
-22 21 -64 25 -94 5 -30 16 -82 24 -115 8 -33 18 -76 21 -96 4 -27 24 -55 88
-120 45 -46 102 -96 127 -111 57 -33 76 -55 85 -95 15 -74 -73 -16 -222 145
-166 180 -178 199 -178 283 l0 68 -47 30 c-60 38 -70 58 -70 140 -1 79 15 133
52 181 43 56 60 95 67 160 3 33 8 60 10 60 2 0 26 -12 54 -26z m677 -150 c22
-6 22 -7 6 -25 -15 -17 -19 -17 -53 -3 -89 37 -107 74 -23 48 26 -8 57 -17 70
-20z m902 -119 c0 -48 -19 -91 -71 -158 -33 -43 -55 -60 -88 -72 -53 -18 -81
-41 -81 -68 0 -14 5 -18 18 -14 91 30 101 31 137 14 28 -13 36 -23 33 -39 -3
-20 -8 -21 -74 -19 -57 2 -75 -1 -94 -17 -15 -12 -21 -25 -17 -35 6 -15 10
-15 48 -2 84 30 153 9 147 -43 -3 -26 -6 -27 -80 -32 -42 -3 -80 -8 -84 -13
-14 -14 20 -37 69 -46 72 -13 77 -21 77 -120 0 -100 -10 -126 -33 -90 -9 13
-18 40 -22 60 -9 51 -21 67 -37 51 -6 -6 -31 -12 -53 -12 -34 0 -44 5 -55 25
-20 37 -33 26 -45 -36 -26 -128 -64 -179 -131 -179 -46 0 -77 32 -116 117
l-30 67 32 98 c18 54 45 116 61 137 15 22 79 83 141 138 62 54 163 148 223
210 61 61 113 112 118 112 4 1 7 -15 7 -34z m-775 -526 c10 -32 -3 -69 -29
-80 -59 -27 -94 49 -38 83 36 23 59 22 67 -3z m-231 -51 c28 -46 28 -75 0 -97
-15 -12 -32 -21 -39 -21 -17 0 -115 51 -115 59 0 7 120 81 132 81 4 0 14 -10
22 -22z m435 -227 c70 -98 79 -116 68 -130 -7 -9 -25 -31 -40 -49 l-27 -33
-63 98 c-35 54 -73 113 -83 131 l-19 34 40 33 c22 19 40 33 41 32 1 -1 38 -53
83 -116z"/>
<path d="M871 1565 c-13 -25 -21 -48 -17 -52 3 -3 7 -4 9 -2 13 16 47 82 47
90 0 21 -17 6 -39 -36z"/>
<path d="M926 1548 c-15 -13 -29 -38 -32 -55 -9 -44 10 -43 31 2 9 19 23 39
31 46 8 6 14 15 14 20 0 15 -18 10 -44 -13z"/>
<path d="M1178 1528 c-34 -38 -36 -42 -23 -62 8 -11 15 -27 15 -34 0 -15 -1
-15 -87 5 -36 8 -28 -22 10 -38 17 -7 54 -34 81 -59 l49 -45 -5 40 c-3 22 0
54 7 70 11 31 9 165 -3 165 -4 0 -24 -19 -44 -42z"/>
<path d="M667 1473 c-14 -13 -6 -43 13 -55 16 -10 18 -20 14 -49 -5 -29 -2
-40 17 -58 33 -30 45 -26 46 17 1 20 3 48 5 61 2 19 -7 31 -43 57 -25 19 -49
31 -52 27z"/>
</g>
</svg>
