<?xml version="1.0" standalone="no"?>
<!DOCTYPE svg PUBLIC "-//W3C//DTD SVG 20010904//EN" "http://www.w3.org/TR/2001/REC-SVG-20010904/DTD/svg10.dtd">
<svg xmlns="http://www.w3.org/2000/svg" version="1.0" width="1024.000000pt" height="1024.000000pt" viewBox="0 0 1024.000000 1024.000000" preserveAspectRatio="xMidYMid meet">
<metadata>
Created by potrace 1.16, written by Peter Selinger 2001-2019
<meta name="Producer" content="Online-Convert"/></metadata>
<g transform="translate(0.000000,1024.000000) scale(0.100000,-0.100000)" fill="#000000" stroke="none">
<path d="M1500 8692 c-11 -18 -20 -35 -20 -37 0 -2 -23 -53 -51 -112 -28 -59 -62 -133 -76 -163 -14 -30 -34 -71 -45 -91 -10 -20 -18 -44 -18 -54 0 -9 26 -96 58 -193 33 -97 85 -258 116 -357 56 -174 82 -256 164 -510 21 -66 56 -174 76 -240 21 -66 46 -142 56 -170 9 -27 33 -102 53 -165 84 -267 100 -315 109 -324 4 -6 8 -18 8 -29 0 -10 14 -60 31 -110 72 -209 76 -347 15 -399 -18 -15 -44 -17 -181 -18 -88 0 -204 -3 -258 -7 l-97 -6 -86 -80 c-46 -44 -106 -107 -131 -141 -26 -33 -53 -65 -60 -69 -7 -4 -13 -12 -13 -17 0 -5 -17 -35 -38 -67 -161 -249 -223 -565 -168 -858 18 -97 73 -287 101 -349 60 -134 135 -281 158 -311 4 -5 33 -48 64 -95 31 -47 86 -120 121 -162 l64 -78 64 0 c120 0 183 -46 184 -135 0 -46 -5 -58 -60 -135 -33 -47 -84 -119 -112 -160 -29 -41 -57 -80 -62 -86 -6 -6 -38 -51 -71 -99 -33 -48 -78 -111 -100 -140 -49 -66 -166 -231 -180 -253 -5 -9 -13 -19 -16 -22 -3 -3 -20 -27 -39 -55 -19 -27 -36 -52 -40 -55 -3 -3 -27 -36 -54 -75 -26 -38 -68 -97 -92 -130 -44 -59 -110 -153 -129 -184 -5 -8 -15 -20 -21 -26 -5 -5 -23 -30 -39 -55 -15 -25 -34 -49 -42 -53 -7 -4 -13 -15 -13 -22 0 -13 91 -15 668 -15 l668 0 21 68 c11 37 28 94 37 127 22 79 56 190 72 240 7 22 17 58 23 80 5 22 16 60 25 85 8 25 23 72 32 105 18 67 45 160 73 250 10 33 27 89 36 125 16 61 25 92 74 253 10 34 29 94 40 134 25 82 64 141 118 177 l38 26 231 0 c127 0 353 -3 503 -7 l272 -6 -63 -35 c-35 -19 -90 -56 -123 -83 -66 -52 -185 -173 -185 -189 0 -6 -4 -10 -8 -10 -11 0 -81 -118 -111 -185 -83 -187 -106 -374 -72 -600 20 -132 104 -325 183 -420 9 -11 32 -39 51 -62 32 -38 52 -57 163 -150 53 -45 243 -137 339 -164 70 -20 102 -23 260 -23 156 1 191 4 260 24 83 23 268 105 273 121 2 5 8 9 13 9 12 0 113 78 165 127 58 55 149 182 193 271 108 217 136 449 82 677 -31 131 -87 260 -148 345 -104 142 -205 235 -343 314 l-65 37 945 -3 c520 -2 1046 -4 1170 -6 240 -3 234 -1 150 -44 -28 -14 -155 -111 -185 -142 -47 -47 -125 -143 -125 -153 0 -6 -4 -13 -9 -15 -15 -5 -86 -149 -113 -228 -36 -106 -58 -231 -58 -330 0 -134 37 -307 86 -403 8 -16 14 -34 14 -41 0 -7 9 -23 20 -36 11 -13 20 -28 20 -35 0 -6 8 -20 18 -31 9 -10 29 -37 43 -60 59 -89 246 -251 325 -281 11 -3 21 -9 24 -13 10 -12 137 -63 210 -83 63 -17 104 -21 250 -21 151 0 187 3 260 23 115 31 275 110 362 180 80 64 199 189 222 233 4 7 18 31 31 53 14 22 30 51 36 65 6 14 17 36 24 50 35 70 69 219 81 351 7 86 -15 256 -47 354 -34 104 -104 239 -164 315 -37 48 -198 200 -211 200 -8 0 -14 4 -14 10 0 5 -19 20 -41 32 -23 13 -51 29 -63 35 -17 10 108 13 627 13 l647 0 0 101 c0 101 0 101 -37 152 -70 95 -82 112 -115 166 -60 97 -76 125 -118 211 -63 130 -68 141 -90 205 -148 423 -173 826 -79 1310 29 148 79 337 110 419 11 27 19 54 19 61 0 12 27 85 56 152 8 17 14 36 14 41 0 6 9 27 19 49 10 21 31 67 46 103 41 99 216 445 257 510 9 14 26 44 39 67 57 101 271 430 288 443 4 3 29 38 56 78 26 39 51 72 55 72 3 0 30 34 59 75 30 41 58 75 62 75 5 0 9 108 9 240 l0 240 -1175 0 -1176 0 -47 -25 c-57 -30 -63 -34 -175 -109 -48 -33 -119 -91 -158 -130 -66 -66 -154 -180 -167 -216 -3 -8 -10 -22 -16 -30 -16 -20 -49 -107 -76 -200 -20 -66 -23 -98 -23 -255 0 -168 2 -188 31 -300 66 -258 133 -416 275 -650 48 -80 130 -200 139 -203 4 -2 8 -8 8 -13 0 -6 9 -20 20 -32 27 -28 70 -120 77 -163 12 -75 -45 -140 -142 -160 -57 -11 -4140 -5 -4193 7 -24 5 -54 17 -68 26 -34 22 -64 88 -64 138 0 42 28 164 50 220 7 17 18 53 25 80 7 28 24 88 38 135 13 47 27 96 30 110 3 14 13 48 22 75 9 28 25 79 35 115 11 36 28 94 39 130 10 36 26 92 35 125 10 33 26 89 36 125 24 80 55 187 76 260 15 53 25 87 73 245 11 39 37 126 56 195 19 69 43 152 54 185 10 33 29 96 41 140 12 44 28 98 35 120 32 100 38 151 22 176 -28 46 -109 174 -132 209 -12 19 -44 69 -70 110 -27 41 -49 77 -51 79 -2 2 -357 4 -789 5 l-786 1 -19 -33z"/>
</g>
</svg>
