<?xml version="1.0" standalone="no"?>
<!DOCTYPE svg PUBLIC "-//W3C//DTD SVG 20010904//EN" "http://www.w3.org/TR/2001/REC-SVG-20010904/DTD/svg10.dtd">
<svg xmlns="http://www.w3.org/2000/svg" version="1.0" width="1200.000000pt" height="857.000000pt" viewBox="0 0 1200.000000 857.000000" preserveAspectRatio="xMidYMid meet">
<metadata>
Created by potrace 1.16, written by Peter Selinger 2001-2019
<meta name="Producer" content="Online-Convert"/></metadata>
<g transform="translate(0.000000,857.000000) scale(0.100000,-0.100000)" fill="#000000" stroke="none">
<path d="M5770 6964 c-455 -54 -831 -247 -1056 -541 -171 -223 -247 -454 -247 -753 0 -233 34 -385 175 -785 133 -378 165 -489 193 -676 47 -312 74 -413 119 -443 51 -33 67 -76 151 -402 18 -71 50 -227 69 -345 20 -119 42 -248 51 -288 8 -40 15 -104 15 -142 0 -39 5 -79 10 -90 27 -50 128 -62 280 -33 45 8 84 13 87 10 13 -13 -112 -55 -205 -70 -137 -21 -192 -50 -192 -102 0 -14 11 -36 25 -49 24 -25 27 -25 196 -25 l172 0 -24 -26 c-35 -37 -54 -45 -141 -60 -100 -18 -182 -49 -222 -85 -26 -23 -29 -31 -20 -46 15 -25 69 -28 195 -8 119 18 214 24 224 13 4 -4 0 -18 -8 -32 -21 -32 -97 -59 -232 -85 -60 -11 -112 -26 -117 -33 -28 -44 12 -104 77 -113 40 -6 234 9 278 22 30 8 17 -28 -19 -52 -18 -12 -73 -36 -123 -54 -50 -18 -100 -40 -111 -49 -20 -17 -20 -17 5 -76 28 -68 55 -100 110 -129 34 -18 58 -22 153 -23 l113 -1 30 -51 c50 -88 127 -132 231 -132 94 0 123 19 183 118 28 46 61 90 75 98 14 7 54 13 91 14 61 0 72 3 128 41 61 40 108 91 149 160 55 91 9 151 -136 179 -78 16 -416 7 -542 -14 -49 -8 -89 -10 -95 -5 -21 20 25 37 140 52 256 35 631 100 652 113 30 19 41 80 20 102 -24 23 -184 18 -407 -13 -235 -33 -350 -42 -350 -27 0 7 23 23 52 38 56 28 188 55 358 74 155 17 283 55 305 90 13 21 -5 60 -35 75 -51 26 -130 18 -336 -35 -234 -60 -296 -64 -354 -20 -18 14 -22 22 -14 30 6 6 74 22 150 36 208 37 358 70 464 104 132 42 133 43 88 85 -55 52 -95 58 -208 34 -129 -27 -235 -35 -245 -19 -4 6 -3 16 1 20 5 5 92 22 193 39 101 17 200 38 220 48 34 17 36 22 43 78 10 78 27 128 108 315 73 169 96 249 135 470 31 182 35 197 86 295 59 115 66 138 84 292 11 92 32 197 65 318 113 415 153 588 195 850 75 463 54 805 -65 1053 -150 314 -531 571 -960 647 -91 16 -401 28 -480 19z m684 -257 c128 -34 253 -95 298 -145 19 -21 60 -81 91 -133 30 -52 81 -119 112 -149 45 -45 59 -67 76 -120 34 -110 49 -226 49 -374 0 -211 -28 -383 -115 -711 -139 -522 -303 -1255 -379 -1695 -48 -271 -90 -437 -133 -523 -31 -63 -85 -88 -197 -95 l-79 -5 7 24 c19 61 17 219 -3 381 -25 197 -26 329 -6 493 24 191 21 246 -22 371 -32 96 -36 121 -37 214 l-1 105 137 341 c286 710 346 888 394 1164 23 133 16 297 -14 365 -28 61 -55 91 -106 117 -77 39 -139 -4 -241 -167 -75 -120 -186 -339 -316 -625 -104 -230 -132 -273 -143 -218 -2 13 -9 70 -15 128 -26 246 -104 542 -172 655 -39 65 -70 85 -131 85 -56 0 -81 -18 -129 -93 -142 -220 -140 -627 7 -1220 66 -271 124 -450 194 -602 37 -83 73 -177 79 -209 16 -88 13 -263 -9 -516 -31 -348 -23 -532 25 -639 14 -29 25 -55 25 -57 0 -6 -192 -4 -232 2 -34 6 -38 10 -44 43 -45 275 -121 562 -208 779 -81 204 -102 280 -136 482 -43 258 -64 329 -193 651 -139 344 -190 522 -209 733 -15 167 -5 237 50 344 22 42 52 120 67 172 14 52 38 117 53 143 33 61 171 194 263 253 153 99 381 191 591 238 174 39 236 45 453 42 178 -3 211 -6 299 -29z m-4 -816 c-31 -333 -111 -578 -345 -1060 -68 -139 -126 -255 -128 -257 -9 -10 -70 145 -77 197 -15 104 13 255 75 404 35 85 194 400 303 600 81 150 175 285 181 259 2 -10 -2 -74 -9 -143z m-904 75 c40 -62 76 -271 109 -638 51 -559 89 -763 172 -905 l24 -42 -30 -15 c-55 -29 -69 -22 -101 47 -107 236 -309 1203 -285 1361 17 111 59 216 85 216 5 0 17 -11 26 -24z m408 -1925 c13 -20 27 -216 41 -556 8 -200 21 -410 29 -467 15 -106 40 -230 51 -260 6 -16 1 -18 -37 -18 -33 0 -67 11 -124 40 -43 22 -84 40 -91 40 -22 0 -22 16 -2 57 53 108 61 289 23 573 -23 177 -24 428 -2 500 24 75 43 100 78 100 16 0 31 -4 34 -9z m376 -2396 c31 -37 -26 -72 -140 -85 -98 -11 -112 -19 -142 -72 -38 -69 -59 -70 -185 -11 -59 29 -125 55 -145 58 -21 4 -38 10 -38 14 0 3 107 24 238 45 130 22 257 45 282 52 63 17 115 17 130 -1z"/>
<path d="M8034 6860 c-36 -14 -136 -81 -220 -146 -151 -117 -237 -247 -192 -292 19 -19 87 -14 137 12 25 13 98 60 161 105 63 44 138 93 167 107 60 30 77 46 98 97 21 51 19 74 -10 102 -19 20 -34 25 -72 24 -26 0 -57 -4 -69 -9z"/>
<path d="M3823 6643 c-44 -17 26 -102 119 -146 98 -47 253 -110 290 -118 49 -12 88 3 88 33 0 32 -32 81 -72 112 -46 34 -173 92 -244 111 -56 14 -155 19 -181 8z"/>
<path d="M3534 5756 c-49 -22 -57 -61 -22 -112 34 -50 69 -65 177 -75 54 -5 148 -18 207 -28 120 -20 156 -15 162 25 6 44 -154 142 -295 179 -86 24 -191 29 -229 11z"/>
<path d="M8070 5621 c-52 -16 -120 -38 -151 -50 -108 -41 -197 -149 -171 -206 7 -14 19 -28 28 -32 17 -6 210 29 484 88 111 24 139 34 158 55 27 31 28 57 2 99 -48 77 -187 96 -350 46z"/>
<path d="M3794 4716 c-164 -31 -334 -113 -334 -162 0 -23 58 -62 111 -74 133 -32 450 30 537 105 l27 24 -19 36 c-33 62 -67 79 -165 82 -47 1 -118 -4 -157 -11z"/>
<path d="M7703 4609 c-19 -20 -16 -63 8 -93 24 -30 92 -73 141 -87 53 -15 366 -51 445 -51 180 0 206 95 46 169 -67 31 -170 50 -318 57 -66 3 -163 9 -215 12 -70 4 -98 2 -107 -7z"/>
<path d="M4289 3787 c-39 -15 -78 -42 -191 -132 -42 -33 -111 -82 -154 -109 -134 -85 -283 -242 -269 -285 15 -48 52 -35 285 97 136 76 441 278 487 321 27 24 31 34 24 53 -19 53 -112 81 -182 55z"/>
<path d="M7619 3548 c-13 -31 2 -66 53 -117 49 -50 113 -88 313 -186 194 -95 243 -109 275 -80 25 23 25 46 1 94 -67 131 -338 274 -583 307 -44 6 -48 5 -59 -18z"/>
<path d="M4644 3098 c-128 -98 -347 -328 -427 -448 -55 -81 -49 -103 25 -102 101 2 174 54 451 318 l128 122 -22 44 c-45 90 -95 112 -155 66z"/>
<path d="M7234 2854 c-16 -23 -16 -28 -2 -57 32 -66 131 -185 290 -344 89 -91 173 -169 186 -174 12 -5 32 -5 45 0 29 11 87 76 87 97 0 35 -183 239 -310 346 -181 152 -260 187 -296 132z"/>
</g>
</svg>
