<svg width="307" height="640" viewBox="0 0 307 640" fill="none" xmlns="http://www.w3.org/2000/svg">
<path d="M126.791 1.84815C59.0331 14.838 16.9038 55.563 3.21177 121.39C-2.22993 147.37 -0.825624 167.381 7.95131 194.239C14.9729 215.654 34.4577 246.9 40.7771 246.9C46.7454 246.9 56.4 241.634 73.2517 228.995C82.7308 221.974 93.2631 214.25 96.9495 211.792C100.46 209.335 103.444 206.702 103.444 205.824C103.444 204.946 98.3538 195.994 92.2099 185.637C85.8905 175.456 79.9222 163.519 78.869 159.306C72.023 133.327 93.7898 95.5858 124.158 80.665C135.392 75.0478 139.605 73.819 151.366 73.2924C185.421 71.8881 212.278 88.3887 227.901 120.512C233.87 132.976 234.221 134.555 234.045 151.232C233.87 186.69 222.46 202.313 151.718 263.927C81.8531 324.664 56.7511 358.894 53.2403 397.688C51.1338 419.63 60.7885 444.03 78.869 463.339C96.5984 482.298 115.908 490.372 148.558 492.128L168.043 493.181L172.431 484.58C180.681 468.43 198.937 405.412 197.884 396.81L197.358 391.72L185.772 402.603C169.974 417.173 156.106 420.859 144.345 413.662C136.095 408.571 132.584 402.252 132.584 391.895C132.584 378.379 139.254 370.128 172.431 343.095C247.737 281.481 272.839 255.326 291.271 218.814C303.559 194.239 306.192 182.829 306.016 152.987C306.016 129.64 305.489 124.901 301.277 111.209C284.776 57.3184 244.753 17.12 194.725 3.77907C179.453 -0.258319 143.292 -1.31155 126.791 1.84815Z" fill="black"/>
<path d="M131.706 520.565C121.7 524.427 119.769 525.656 110.817 533.731C98.8803 544.789 89.4012 571.471 91.8588 587.796C93.4386 597.978 99.9335 611.67 107.131 619.745C130.477 646.426 173.66 646.778 197.182 620.622C208.592 607.983 212.805 595.696 211.927 576.913C211.576 564.274 210.523 560.061 205.608 550.231C199.288 537.417 190.336 528.464 177.346 522.145C165.936 516.703 144.52 516.001 131.706 520.565Z" fill="black"/>
</svg>
