<?xml version="1.0" standalone="no"?>
<!DOCTYPE svg PUBLIC "-//W3C//DTD SVG 20010904//EN"
 "http://www.w3.org/TR/2001/REC-SVG-20010904/DTD/svg10.dtd">
<svg version="1.0" xmlns="http://www.w3.org/2000/svg"
 width="221.000000pt" height="425.000000pt" viewBox="0 0 221.000000 425.000000"
 preserveAspectRatio="xMidYMid meet">

<g transform="translate(0.000000,425.000000) scale(0.100000,-0.100000)"
fill="#000000" stroke="none">
<path d="M1023 4026 c-386 -74 -626 -306 -704 -681 -31 -148 -23 -262 27 -415
40 -122 151 -300 187 -300 34 0 89 30 185 102 54 40 114 84 135 98 20 14 37
29 37 34 0 5 -29 56 -64 115 -36 58 -70 126 -76 150 -39 148 85 363 258 448
64 32 88 39 155 42 194 8 347 -86 436 -269 34 -71 36 -80 35 -175 -1 -202 -66
-291 -469 -642 -398 -346 -541 -541 -561 -762 -12 -125 43 -264 146 -374 101
-108 211 -154 397 -164 l111 -6 25 49 c47 92 151 451 145 500 l-3 29 -66 -62
c-90 -83 -169 -104 -236 -63 -47 29 -67 65 -67 124 0 77 38 124 227 278 429
351 572 500 677 708 70 140 85 205 84 375 0 133 -3 160 -27 238 -94 307 -322
536 -607 612 -87 23 -293 29 -387 11z"/>
<path d="M1051 1071 c-57 -22 -68 -29 -119 -75 -68 -63 -122 -215 -108 -308 9
-58 46 -136 87 -182 133 -152 379 -154 513 -5 65 72 89 142 84 249 -2 72 -8
96 -36 152 -36 73 -87 124 -161 160 -65 31 -187 35 -260 9z"/>
</g>
</svg>
