<?xml version="1.0" standalone="no"?>
<!DOCTYPE svg PUBLIC "-//W3C//DTD SVG 20010904//EN" "http://www.w3.org/TR/2001/REC-SVG-20010904/DTD/svg10.dtd">
<svg xmlns="http://www.w3.org/2000/svg" version="1.0" width="800.000000pt" height="800.000000pt" viewBox="0 0 800.000000 800.000000" preserveAspectRatio="xMidYMid meet">
<metadata>
Created by potrace 1.16, written by Peter Selinger 2001-2019
<meta name="Producer" content="Online-Convert"/></metadata>
<g transform="translate(0.000000,800.000000) scale(0.100000,-0.100000)" fill="#000000" stroke="none">
<path d="M3667 6589 c-14 -24 -144 -258 -289 -519 -146 -261 -359 -644 -474 -850 l-209 -375 -7 -89 c-4 -48 -8 -89 -10 -91 -2 -1 -446 -129 -986 -283 -541 -154 -985 -282 -987 -284 -5 -5 10 -1846 15 -1851 3 -3 311 -92 685 -197 374 -105 813 -229 975 -275 162 -46 568 -160 902 -254 l606 -171 1016 504 1016 505 2 858 3 858 119 7 c65 4 119 8 121 10 3 4 238 415 412 723 72 127 254 449 406 716 152 267 281 497 287 510 11 24 1 41 -151 253 -89 126 -167 229 -173 231 -6 2 -657 24 -1446 50 -789 25 -1519 49 -1621 52 l-186 6 -26 -44z m713 -39 c146 -6 715 -26 1265 -45 550 -19 1047 -37 1105 -39 58 -3 115 -6 128 -6 12 0 22 -5 22 -11 0 -11 -150 -280 -495 -894 -119 -211 -595 -1060 -635 -1132 -29 -53 -32 -53 -233 -13 -229 45 -389 100 -427 145 -26 31 6 37 170 31 104 -4 196 -13 280 -30 116 -22 126 -23 141 -7 9 9 214 354 454 766 624 1069 635 1088 632 1091 -3 4 -1395 44 -2758 80 l-256 7 -298 -539 c-164 -296 -341 -615 -393 -709 -153 -274 -195 -356 -186 -364 5 -4 144 -32 309 -61 458 -80 478 -84 482 -95 1 -5 -7 -22 -20 -38 l-22 -27 -438 74 c-242 41 -441 77 -444 80 -3 3 13 38 35 78 22 40 82 152 134 248 53 96 136 249 185 340 50 91 193 354 318 585 125 231 239 440 253 464 l24 44 202 -7 c110 -3 320 -11 466 -16z m345 -155 c264 -8 716 -22 1005 -30 787 -22 920 -27 920 -34 0 -3 -24 -49 -53 -101 l-52 -95 -65 3 c-36 1 -234 9 -440 17 -206 9 -530 22 -720 30 -190 8 -516 22 -725 31 -209 8 -456 16 -549 17 l-169 2 -157 -290 c-456 -847 -562 -1041 -570 -1049 -12 -12 -180 13 -180 27 0 6 14 35 32 66 42 75 311 566 571 1045 l212 388 230 -6 c127 -4 446 -13 710 -21z m-444 -1032 c28 -15 62 -18 204 -18 156 0 174 -2 216 -23 77 -37 88 -92 38 -191 -27 -54 -44 -72 -123 -132 -51 -38 -98 -69 -104 -69 -16 0 -14 29 3 60 17 30 19 76 4 85 -26 17 -56 -5 -69 -51 -7 -25 -30 -72 -51 -104 -29 -45 -46 -61 -81 -74 -38 -15 -48 -15 -83 -3 -40 14 -40 14 -48 78 -14 115 -44 156 -93 124 -30 -20 -32 -61 -3 -116 34 -67 3 -84 -96 -53 -29 9 -67 13 -90 10 -37 -5 -42 -3 -60 27 -13 20 -42 43 -83 63 -117 58 -134 92 -85 180 61 112 75 119 258 120 175 1 224 13 269 68 16 20 33 36 36 36 4 0 22 -8 41 -17z m-301 -566 c97 -36 314 -27 463 19 9 3 17 1 17 -4 0 -12 -113 -58 -177 -73 -127 -28 -295 1 -365 63 -22 19 -26 27 -13 22 11 -4 45 -16 75 -27z m752 -86 c264 -144 357 -223 416 -351 29 -63 41 -152 22 -174 -15 -19 -316 -120 -330 -111 -5 3 -10 13 -10 21 0 21 -45 106 -75 142 -28 34 -75 54 -95 42 -12 -7 -12 -24 0 -102 17 -116 17 -148 -1 -159 -23 -15 -503 -169 -527 -169 -21 0 -22 3 -22 109 0 60 -4 121 -10 135 -14 37 -46 34 -66 -6 -19 -36 -44 -187 -44 -264 0 -37 -6 -59 -21 -78 -19 -24 -26 -26 -100 -26 -95 0 -161 15 -185 41 -15 17 -16 26 -4 93 22 130 -2 229 -48 200 -20 -13 -60 -150 -61 -211 -1 -23 -5 -53 -11 -68 -9 -25 -12 -25 -62 -19 -98 13 -142 29 -155 55 -18 34 -16 163 2 234 32 123 75 191 286 457 112 141 209 257 216 258 7 0 35 -28 63 -62 29 -35 61 -71 72 -80 25 -22 91 -24 108 -3 18 21 33 19 60 -10 30 -31 50 -32 50 -1 0 44 21 49 98 27 38 -12 76 -29 85 -39 30 -33 55 -106 61 -182 9 -102 30 -171 61 -200 24 -23 26 -23 43 -7 26 27 21 165 -12 304 -28 118 -27 151 5 215 16 32 42 57 59 58 3 0 62 -31 132 -69z m-1786 -95 c15 -60 63 -45 -886 -278 -920 -227 -916 -226 -908 -233 3 -4 352 -65 1318 -231 325 -55 886 -152 1155 -199 110 -19 218 -37 240 -41 34 -5 80 8 280 76 132 45 299 101 370 125 72 24 337 113 589 199 253 86 461 154 463 152 3 -2 -6 -7 -19 -11 -13 -4 -388 -153 -834 -331 l-811 -322 -624 113 c-343 63 -1009 184 -1479 270 -1001 182 -960 174 -960 185 0 5 28 15 63 23 34 9 166 42 292 75 127 33 320 83 430 112 110 28 241 62 290 75 50 13 257 67 460 119 204 52 411 106 460 120 50 13 93 25 97 25 4 1 10 -10 14 -23z m129 -210 c43 -18 68 -56 68 -104 0 -44 -19 -83 -67 -141 -20 -24 -36 -48 -36 -55 0 -6 17 -20 37 -31 70 -38 114 -130 98 -205 -13 -58 -21 -59 -152 -35 -65 12 -188 34 -273 49 -376 66 -415 76 -377 97 27 15 57 84 57 129 0 33 -7 48 -40 84 -65 70 -52 93 62 107 104 13 128 19 170 41 31 18 41 19 69 9 54 -19 128 -13 194 15 140 60 140 60 190 40z m2739 -263 c3 -21 6 -120 6 -220 0 -170 12 -809 25 -1299 l5 -211 -312 -153 c-172 -85 -416 -204 -543 -266 -126 -61 -410 -200 -630 -308 -219 -108 -405 -194 -412 -192 -10 4 -13 95 -14 438 -1 238 -4 674 -8 968 -4 294 -5 540 -3 547 4 13 176 83 204 83 20 0 25 -51 33 -335 12 -455 36 -1126 41 -1192 3 -40 10 -75 15 -78 5 -3 30 -8 57 -12 52 -6 50 -6 532 224 91 43 326 155 524 248 197 94 361 176 364 184 6 16 -14 1223 -24 1426 l-6 120 59 32 c32 18 63 32 69 33 6 0 14 -17 18 -37z m-4918 -153 c55 -11 107 -23 117 -26 15 -5 17 -23 17 -187 0 -157 3 -188 19 -224 11 -23 30 -47 43 -54 20 -11 296 -67 643 -130 66 -12 124 -25 128 -29 5 -4 -6 -29 -23 -56 -17 -27 -36 -68 -42 -91 -6 -24 -15 -43 -22 -43 -6 0 -170 30 -364 66 -194 36 -355 65 -357 63 -2 -2 -7 -183 -11 -401 l-7 -397 24 -11 c13 -5 92 -28 174 -49 176 -46 178 -47 1105 -292 393 -104 828 -219 965 -255 138 -36 258 -68 268 -70 16 -5 17 23 17 485 0 270 -2 491 -4 491 -7 0 -981 211 -998 216 -26 8 -28 25 -36 269 l-8 220 -33 63 c-19 34 -53 80 -77 102 -36 33 -51 40 -84 40 -68 0 -121 -39 -179 -133 -24 -39 -118 -114 -129 -103 -3 4 -8 76 -10 161 -4 146 -3 155 14 155 52 0 579 -101 586 -112 5 -7 6 -67 2 -138 -11 -183 -9 -234 12 -271 34 -57 58 -67 234 -94 91 -14 274 -44 407 -65 133 -22 248 -40 256 -40 11 0 15 42 21 217 4 120 9 220 12 222 4 4 203 -26 237 -35 16 -5 17 -62 17 -1005 0 -945 -1 -999 -17 -999 -10 0 -40 7 -68 15 -68 21 -883 256 -1915 551 -470 135 -892 256 -936 270 l-82 25 -6 202 c-12 381 -33 1482 -29 1490 6 10 8 10 119 -13z m4469 -72 c-9 -35 -78 -101 -101 -96 -27 5 -30 50 -4 73 25 22 26 37 3 28 -33 -11 -53 -36 -53 -65 0 -40 32 -68 79 -68 44 0 66 -19 56 -50 -5 -17 -15 -20 -64 -20 -67 0 -105 22 -127 76 -24 57 -13 134 18 134 9 0 9 -3 0 -12 -19 -19 -14 -99 8 -136 23 -38 59 -54 109 -50 28 2 36 7 36 23 0 17 -8 20 -46 23 -57 4 -83 28 -83 79 0 26 7 42 28 59 50 43 94 26 51 -20 -14 -15 -25 -33 -25 -41 0 -29 20 -23 64 20 39 38 45 48 36 64 -5 11 -20 23 -31 26 -16 5 -18 9 -9 15 8 5 22 -1 37 -14 18 -17 23 -29 18 -48z m-3015 -316 c0 -9 -21 -33 -47 -52 -52 -39 -55 -50 -32 -127 15 -49 9 -61 -24 -46 -33 15 -59 73 -50 114 9 45 91 129 126 129 19 0 27 -5 27 -18z m2837 -128 c8 -22 -23 -48 -74 -63 -53 -15 -64 -43 -32 -77 25 -27 25 -26 -16 -40 -47 -15 -45 -47 4 -79 45 -28 49 -39 25 -73 -31 -45 -197 -112 -276 -112 -62 0 -50 29 41 100 69 54 80 66 90 107 14 55 -2 88 -49 98 -46 10 -82 -2 -157 -51 -79 -52 -116 -56 -121 -13 -3 25 2 29 65 49 37 13 122 47 188 77 114 52 234 91 283 92 12 1 25 -6 29 -15z m137 -105 c47 -37 72 -138 55 -219 -14 -65 -47 -93 -204 -170 -128 -63 -243 -101 -391 -127 -89 -16 -93 -16 -125 3 -19 11 -40 31 -47 45 -29 54 7 199 66 269 19 21 23 23 32 10 13 -18 8 -59 -15 -123 -14 -38 -15 -53 -7 -73 11 -23 16 -24 105 -24 178 0 340 63 455 176 59 59 62 65 62 110 0 64 -27 94 -84 94 -60 0 -76 14 -40 34 43 23 106 20 138 -5z m-3236 -58 c9 -10 29 -34 45 -54 26 -35 39 -41 129 -61 55 -12 75 -104 39 -181 -10 -22 -35 -60 -55 -84 -63 -75 -71 -106 -22 -83 80 36 148 136 156 227 4 53 8 60 28 63 30 5 52 -14 52 -45 0 -49 -74 -185 -126 -234 -123 -114 -297 -101 -400 30 -82 105 -93 193 -37 312 41 89 83 129 134 129 25 0 45 -7 57 -19z"/>
<path d="M4255 5273 c-16 -9 -49 -33 -73 -55 -65 -60 -111 -71 -167 -42 -28 15 -30 14 -48 -10 -22 -31 -52 -33 -119 -9 -43 15 -48 15 -72 -1 -35 -22 -33 -37 2 -24 24 9 35 7 74 -16 60 -35 90 -34 122 5 21 25 29 29 40 19 33 -27 157 1 182 41 11 18 96 69 116 69 9 0 34 -18 54 -40 52 -56 83 -59 191 -19 104 39 138 58 125 71 -6 6 -46 0 -105 -16 -115 -31 -129 -32 -153 -5 -44 49 -113 62 -169 32z"/>
<path d="M2975 4321 c-53 -28 -99 -31 -330 -21 -79 4 -95 1 -133 -18 -29 -16 -42 -29 -40 -40 5 -27 78 -28 128 -2 37 19 55 20 183 18 158 -3 186 4 227 62 12 16 20 29 18 29 -2 -1 -25 -14 -53 -28z"/>
<path d="M2989 4198 c-72 -78 -92 -114 -85 -150 7 -39 74 -131 99 -136 23 -5 24 50 1 69 -24 20 -13 117 20 173 27 46 34 86 15 86 -6 0 -29 -19 -50 -42z"/>
</g>
</svg>
