<svg width="876" height="705" viewBox="0 0 876 705" fill="none" xmlns="http://www.w3.org/2000/svg">
<path d="M395.067 5.86664C393.201 9.06664 375.867 40.2666 356.534 75.0666C337.067 109.867 308.667 160.933 293.334 188.4L265.467 238.4L264.534 250.267C264.001 256.667 263.467 262.133 263.201 262.4C262.934 262.533 203.734 279.6 131.734 300.133C59.6008 320.667 0.400844 337.733 0.134177 338C-0.53249 338.667 1.46751 584.133 2.13418 584.8C2.53418 585.2 43.6008 597.067 93.4675 611.067C143.334 625.067 201.868 641.6 223.467 647.733C245.067 653.867 299.201 669.067 343.734 681.6L424.534 704.4L560.001 637.2L695.467 569.867L695.734 455.467L696.134 341.067L712.001 340.133C720.667 339.6 727.867 339.067 728.134 338.8C728.534 338.267 759.867 283.467 783.067 242.4C792.667 225.467 816.934 182.533 837.201 146.933C857.467 111.333 874.667 80.6666 875.467 78.9333C876.934 75.7333 875.601 73.4666 855.334 45.2C843.467 28.4 833.067 14.6666 832.267 14.4C831.467 14.1333 744.667 11.2 639.467 7.73331C534.267 4.39997 436.934 1.19997 423.334 0.799972L398.534 -2.7582e-05L395.067 5.86664ZM490.134 11.0666C509.601 11.8666 585.467 14.5333 658.801 17.0666C732.134 19.6 798.401 22 806.134 22.2666C813.867 22.6666 821.467 23.0666 823.201 23.0666C824.801 23.0666 826.134 23.7333 826.134 24.5333C826.134 26 806.134 61.8666 760.134 143.733C744.267 171.867 680.801 285.067 675.467 294.667C671.601 301.733 671.201 301.733 644.401 296.4C613.867 290.4 592.534 283.067 587.467 277.067C584.001 272.933 588.267 272.133 610.134 272.933C624.001 273.467 636.267 274.667 647.467 276.933C662.934 279.867 664.267 280 666.267 277.867C667.467 276.667 694.801 230.667 726.801 175.733C810.001 33.2 811.467 30.6666 811.067 30.2666C810.667 29.7333 625.067 24.4 443.334 19.6L409.201 18.6666L369.467 90.5333C347.601 130 324.001 172.533 317.067 185.067C296.667 221.6 291.067 232.533 292.267 233.6C292.934 234.133 311.467 237.867 333.467 241.733C394.534 252.4 397.201 252.933 397.734 254.4C397.867 255.067 396.801 257.333 395.067 259.467L392.134 263.067L333.734 253.2C301.467 247.733 274.934 242.933 274.534 242.533C274.134 242.133 276.267 237.467 279.201 232.133C282.134 226.8 290.134 211.867 297.067 199.067C304.134 186.267 315.201 165.867 321.734 153.733C328.401 141.6 347.467 106.533 364.134 75.7333C380.801 44.9333 396.001 17.0666 397.867 13.8666L401.067 7.99997L428.001 8.93331C442.667 9.33331 470.667 10.4 490.134 11.0666ZM536.134 31.7333C571.334 32.8 631.601 34.6666 670.134 35.7333C775.067 38.6666 792.801 39.3333 792.801 40.2666C792.801 40.6666 789.601 46.8 785.734 53.7333L778.801 66.4L770.134 66C765.334 65.8666 738.934 64.8 711.467 63.7333C684.001 62.5333 640.801 60.8 615.467 59.7333C590.134 58.6666 546.667 56.8 518.801 55.6C490.934 54.5333 458.001 53.4666 445.601 53.3333L423.067 53.0666L402.134 91.7333C341.334 204.667 327.201 230.533 326.134 231.6C324.534 233.2 302.134 229.867 302.134 228C302.134 227.2 304.001 223.333 306.401 219.2C312.001 209.2 347.867 143.733 382.534 79.8666L410.801 28.1333L441.467 28.9333C458.401 29.4666 500.934 30.6666 536.134 31.7333ZM476.934 169.333C480.667 171.333 485.201 171.733 504.134 171.733C524.934 171.733 527.334 172 532.934 174.8C543.201 179.733 544.667 187.067 538.001 200.267C534.401 207.467 532.134 209.867 521.601 217.867C514.801 222.933 508.534 227.067 507.734 227.067C505.601 227.067 505.867 223.2 508.134 219.067C510.401 215.067 510.667 208.933 508.667 207.733C505.201 205.467 501.201 208.4 499.467 214.533C498.534 217.867 495.467 224.133 492.667 228.4C488.801 234.4 486.534 236.533 481.867 238.267C476.801 240.267 475.467 240.267 470.801 238.667C465.467 236.8 465.467 236.8 464.401 228.267C462.534 212.933 458.534 207.467 452.001 211.733C448.001 214.4 447.734 219.867 451.601 227.2C456.134 236.133 452.001 238.4 438.801 234.267C434.934 233.067 429.867 232.533 426.801 232.933C421.867 233.6 421.201 233.333 418.801 229.333C417.067 226.667 413.201 223.6 407.734 220.933C392.134 213.2 389.867 208.667 396.401 196.933C404.534 182 406.401 181.067 430.801 180.933C454.134 180.8 460.667 179.2 466.667 171.867C468.801 169.2 471.067 167.067 471.467 167.067C472.001 167.067 474.401 168.133 476.934 169.333ZM436.801 244.8C449.734 249.6 478.667 248.4 498.534 242.267C499.734 241.867 500.801 242.133 500.801 242.8C500.801 244.4 485.734 250.533 477.201 252.533C460.267 256.267 437.867 252.4 428.534 244.133C425.601 241.6 425.067 240.533 426.801 241.2C428.267 241.733 432.801 243.333 436.801 244.8ZM537.067 256.267C572.267 275.467 584.667 286 592.534 303.067C596.401 311.467 598.001 323.333 595.467 326.267C593.467 328.8 553.334 342.267 551.467 341.067C550.801 340.667 550.134 339.333 550.134 338.267C550.134 335.467 544.134 324.133 540.134 319.333C536.401 314.8 530.134 312.133 527.467 313.733C525.867 314.667 525.867 316.933 527.467 327.333C529.734 342.8 529.734 347.067 527.334 348.533C524.267 350.533 460.267 371.067 457.067 371.067C454.267 371.067 454.134 370.667 454.134 356.533C454.134 348.533 453.601 340.4 452.801 338.533C450.934 333.6 446.667 334 444.001 339.333C441.467 344.133 438.134 364.267 438.134 374.533C438.134 379.467 437.334 382.4 435.334 384.933C432.801 388.133 431.867 388.4 422.001 388.4C409.334 388.4 400.534 386.4 397.334 382.933C395.334 380.667 395.201 379.467 396.801 370.533C399.734 353.2 396.534 340 390.401 343.867C387.734 345.6 382.401 363.867 382.267 372C382.134 375.067 381.601 379.067 380.801 381.067C379.601 384.4 379.201 384.4 372.534 383.6C359.467 381.867 353.601 379.733 351.867 376.267C349.467 371.733 349.734 354.533 352.134 345.067C356.401 328.667 362.134 319.6 390.267 284.133C405.201 265.333 418.134 249.867 419.067 249.733C420.001 249.733 423.734 253.467 427.467 258C431.334 262.667 435.601 267.467 437.067 268.667C440.401 271.6 449.201 271.867 451.467 269.067C453.867 266.267 455.867 266.533 459.467 270.4C463.467 274.533 466.134 274.667 466.134 270.533C466.134 264.667 468.934 264 479.201 266.933C484.267 268.533 489.334 270.8 490.534 272.133C494.534 276.533 497.867 286.267 498.667 296.4C499.867 310 502.667 319.2 506.801 323.067C510.001 326.133 510.267 326.133 512.534 324C516.001 320.4 515.334 302 510.934 283.467C507.201 267.733 507.334 263.333 511.601 254.8C513.734 250.533 517.201 247.2 519.467 247.067C519.867 247.067 527.734 251.2 537.067 256.267ZM298.934 268.933C300.934 276.933 307.334 274.933 180.801 306C58.1342 336.267 58.6675 336.133 59.7342 337.067C60.1342 337.6 106.668 345.733 235.467 367.867C278.801 375.2 353.601 388.133 389.467 394.4C404.134 396.933 418.534 399.333 421.467 399.867C426.001 400.533 432.134 398.8 458.801 389.733C476.401 383.733 498.667 376.267 508.134 373.067C517.734 369.867 553.067 358 586.667 346.533C620.401 335.067 648.134 326 648.401 326.267C648.801 326.533 647.601 327.2 645.867 327.733C644.134 328.267 594.134 348.133 534.667 371.867L426.534 414.8L343.334 399.733C297.601 391.333 208.801 375.2 146.134 363.733C12.6675 339.467 18.1342 340.533 18.1342 339.067C18.1342 338.4 21.8675 337.067 26.5342 336C31.0675 334.8 48.6675 330.4 65.4675 326C82.4008 321.6 108.134 314.933 122.801 311.067C137.468 307.333 154.934 302.8 161.468 301.067C168.134 299.333 195.734 292.133 222.801 285.2C250.001 278.267 277.601 271.067 284.134 269.2C290.801 267.467 296.534 265.867 297.067 265.867C297.601 265.733 298.401 267.2 298.934 268.933ZM316.134 296.933C321.867 299.333 325.201 304.4 325.201 310.8C325.201 316.667 322.667 321.867 316.267 329.6C313.601 332.8 311.467 336 311.467 336.933C311.467 337.733 313.734 339.6 316.401 341.067C325.734 346.133 331.601 358.4 329.467 368.4C327.734 376.133 326.667 376.267 309.201 373.067C300.534 371.467 284.134 368.533 272.801 366.533C222.667 357.733 217.468 356.4 222.534 353.6C226.134 351.6 230.134 342.4 230.134 336.4C230.134 332 229.201 330 224.801 325.2C216.134 315.867 217.868 312.8 233.067 310.933C246.934 309.2 250.134 308.4 255.734 305.467C259.867 303.067 261.201 302.933 264.934 304.267C272.134 306.8 282.001 306 290.801 302.267C309.467 294.267 309.467 294.267 316.134 296.933ZM681.334 332C681.734 334.8 682.134 348 682.134 361.333C682.134 384 683.734 469.2 685.467 534.533L686.134 562.667L644.534 583.067C621.601 594.4 589.067 610.267 572.134 618.533C555.334 626.667 517.467 645.2 488.134 659.6C458.934 674 434.134 685.467 433.201 685.2C431.867 684.667 431.467 672.533 431.334 626.8C431.201 595.067 430.801 536.933 430.267 497.733C429.734 458.533 429.601 425.733 429.867 424.8C430.401 423.067 453.334 413.733 457.067 413.733C459.734 413.733 460.401 420.533 461.467 458.4C463.067 519.067 466.267 608.533 466.934 617.333C467.334 622.667 468.267 627.333 468.934 627.733C469.601 628.133 472.934 628.8 476.534 629.333C483.467 630.133 483.201 630.133 547.467 599.467C559.601 593.733 590.934 578.8 617.334 566.4C643.601 553.867 665.467 542.933 665.867 541.867C666.667 539.733 664.001 378.8 662.667 351.733L661.867 335.733L669.734 331.467C674.001 329.067 678.134 327.2 678.934 327.067C679.734 327.067 680.801 329.333 681.334 332ZM25.6008 352.4C32.9342 353.867 39.8675 355.467 41.2008 355.867C43.2008 356.533 43.4675 358.933 43.4675 380.8C43.4675 401.733 43.8675 405.867 46.0008 410.667C47.4675 413.733 50.0008 416.933 51.7342 417.867C54.4008 419.333 91.2008 426.8 137.468 435.2C146.268 436.8 154.001 438.533 154.534 439.067C155.201 439.6 153.734 442.933 151.468 446.533C149.201 450.133 146.668 455.6 145.868 458.667C145.068 461.867 143.868 464.4 142.934 464.4C142.134 464.4 120.268 460.4 94.4008 455.6C68.5342 450.8 47.0675 446.933 46.8008 447.2C46.5342 447.467 45.8675 471.6 45.3342 500.667L44.4008 553.6L47.6008 555.067C49.3342 555.733 59.8675 558.8 70.8008 561.6C94.2675 567.733 94.5342 567.867 218.134 600.533C270.534 614.4 328.534 629.733 346.801 634.533C365.201 639.333 381.201 643.6 382.534 643.867C384.667 644.533 384.801 640.8 384.801 579.2C384.801 543.2 384.534 513.733 384.267 513.733C383.334 513.733 253.467 485.6 251.201 484.933C247.734 483.867 247.467 481.6 246.401 449.067L245.334 419.733L240.934 411.333C238.401 406.8 233.867 400.667 230.667 397.733C225.867 393.333 223.867 392.4 219.467 392.4C210.401 392.4 203.334 397.6 195.601 410.133C192.401 415.333 179.868 425.333 178.401 423.867C178.001 423.333 177.334 413.733 177.068 402.4C176.534 382.933 176.668 381.733 178.934 381.733C185.868 381.733 256.134 395.2 257.067 396.667C257.734 397.6 257.867 405.6 257.334 415.067C255.867 439.467 256.134 446.267 258.934 451.2C263.467 458.8 266.667 460.133 290.134 463.733C302.267 465.6 326.667 469.6 344.401 472.4C362.134 475.333 377.467 477.733 378.534 477.733C380.001 477.733 380.534 472.133 381.334 448.8C381.867 432.8 382.534 419.467 382.934 419.2C383.467 418.667 410.001 422.667 414.534 423.867C416.667 424.533 416.801 432.133 416.801 557.867C416.801 683.867 416.667 691.067 414.534 691.067C413.201 691.067 409.201 690.133 405.467 689.067C396.401 686.267 287.734 654.933 150.134 615.6C87.4675 597.6 31.2008 581.467 25.3342 579.6L14.4008 576.267L13.6008 549.333C12.0008 498.533 9.20084 351.733 9.73418 350.667C10.5342 349.333 10.8008 349.333 25.6008 352.4ZM621.467 362C620.267 366.667 611.067 375.467 608.001 374.8C604.401 374.133 604.001 368.133 607.467 365.067C610.801 362.133 610.934 360.133 607.867 361.333C603.467 362.8 600.801 366.133 600.801 370C600.801 375.333 605.067 379.067 611.334 379.067C617.201 379.067 620.134 381.6 618.801 385.733C618.134 388 616.801 388.4 610.267 388.4C601.334 388.4 596.267 385.467 593.334 378.267C590.134 370.667 591.601 360.4 595.734 360.4C596.934 360.4 596.934 360.8 595.734 362C593.201 364.533 593.867 375.2 596.801 380.133C599.867 385.2 604.667 387.333 611.334 386.8C615.067 386.533 616.134 385.867 616.134 383.733C616.134 381.467 615.067 381.067 610.001 380.667C602.401 380.133 598.934 376.933 598.934 370.133C598.934 366.667 599.867 364.533 602.667 362.267C609.334 356.533 615.201 358.8 609.467 364.933C607.601 366.933 606.134 369.333 606.134 370.4C606.134 374.267 608.801 373.467 614.667 367.733C619.867 362.667 620.667 361.333 619.467 359.2C618.801 357.733 616.801 356.133 615.334 355.733C613.201 355.067 612.934 354.533 614.134 353.733C615.201 353.067 617.067 353.867 619.067 355.6C621.467 357.867 622.134 359.467 621.467 362ZM219.467 404.133C219.467 405.333 216.668 408.533 213.201 411.067C206.268 416.267 205.868 417.733 208.934 428C210.934 434.533 210.134 436.133 205.734 434.133C201.334 432.133 197.868 424.4 199.068 418.933C200.268 412.933 211.201 401.733 215.868 401.733C218.401 401.733 219.467 402.4 219.467 404.133ZM597.734 421.2C598.801 424.133 594.667 427.6 587.867 429.6C580.801 431.6 579.334 435.333 583.601 439.867C586.934 443.467 586.934 443.333 581.467 445.2C575.201 447.2 575.467 451.467 582.001 455.733C588.001 459.467 588.534 460.933 585.334 465.467C581.201 471.467 559.067 480.4 548.534 480.4C540.267 480.4 541.867 476.533 554.001 467.067C563.201 459.867 564.667 458.267 566.001 452.8C567.867 445.467 565.734 441.067 559.467 439.733C553.334 438.4 548.534 440 538.534 446.533C528.001 453.467 523.067 454 522.401 448.267C522.001 444.933 522.667 444.4 531.067 441.733C536.001 440 547.334 435.467 556.134 431.467C571.334 424.533 587.334 419.333 593.867 419.2C595.467 419.067 597.201 420 597.734 421.2ZM616.001 435.2C622.267 440.133 625.601 453.6 623.334 464.4C621.467 473.067 617.067 476.8 596.134 487.067C579.067 495.467 563.734 500.533 544.001 504C532.134 506.133 531.601 506.133 527.334 503.6C524.801 502.133 522.001 499.467 521.067 497.6C517.201 490.4 522.001 471.067 529.867 461.733C532.401 458.933 532.934 458.667 534.134 460.4C535.867 462.8 535.201 468.267 532.134 476.8C530.267 481.867 530.134 483.867 531.201 486.533C532.667 489.6 533.334 489.733 545.201 489.733C568.934 489.733 590.534 481.333 605.867 466.267C613.734 458.4 614.134 457.6 614.134 451.6C614.134 443.067 610.534 439.067 602.934 439.067C594.934 439.067 592.801 437.2 597.601 434.533C603.334 431.467 611.734 431.867 616.001 435.2ZM184.534 442.933C185.734 444.267 188.401 447.467 190.534 450.133C194.001 454.8 195.734 455.6 207.734 458.267C215.068 459.867 217.734 472.133 212.934 482.4C211.601 485.333 208.268 490.4 205.601 493.6C197.201 503.6 196.134 507.733 202.668 504.667C213.334 499.867 222.401 486.533 223.467 474.4C224.001 467.333 224.534 466.4 227.201 466C231.201 465.333 234.134 467.867 234.134 472C234.134 478.533 224.267 496.667 217.334 503.2C200.934 518.4 177.734 516.667 164.001 499.2C153.068 485.2 151.601 473.467 159.068 457.6C164.534 445.733 170.134 440.4 176.934 440.4C180.268 440.4 182.934 441.333 184.534 442.933Z" fill="black"/>
<path d="M473.468 181.333C471.334 182.533 466.934 185.733 463.734 188.667C455.068 196.667 448.934 198.133 441.468 194.267C437.734 192.267 437.468 192.4 435.068 195.6C432.134 199.733 428.134 200 419.201 196.8C413.468 194.8 412.801 194.8 409.601 196.933C404.934 199.867 405.201 201.867 409.868 200.133C413.068 198.933 414.534 199.2 419.734 202.267C427.734 206.933 431.734 206.8 436.001 201.6C438.801 198.267 439.868 197.733 441.334 199.067C445.734 202.667 462.268 198.933 465.601 193.6C467.068 191.2 478.401 184.4 481.068 184.4C482.268 184.4 485.601 186.8 488.268 189.733C495.201 197.2 499.334 197.6 513.734 192.267C527.601 187.067 532.134 184.533 530.401 182.8C529.601 182 524.268 182.8 516.401 184.933C501.068 189.067 499.201 189.2 496.001 185.6C490.134 179.067 480.934 177.333 473.468 181.333Z" fill="black"/>
<path d="M302.801 308.267C295.734 312 289.601 312.4 258.801 311.067C248.267 310.533 246.134 310.933 241.067 313.467C237.201 315.6 235.467 317.333 235.734 318.8C236.401 322.4 246.134 322.533 252.801 319.067C257.734 316.533 260.134 316.4 277.201 316.667C298.267 317.067 302.001 316.133 307.467 308.4C309.067 306.267 310.134 304.533 309.867 304.533C309.601 304.667 306.534 306.4 302.801 308.267Z" fill="black"/>
<path d="M304.667 324.667C295.067 335.067 292.401 339.867 293.334 344.667C294.267 349.867 303.201 362.133 306.534 362.8C309.601 363.467 309.734 356.133 306.667 353.6C303.467 350.933 304.934 338 309.334 330.533C312.934 324.4 313.867 319.067 311.334 319.067C310.534 319.067 307.467 321.6 304.667 324.667Z" fill="black"/>
</svg>
