<?xml version="1.0" standalone="no"?>
<!DOCTYPE svg PUBLIC "-//W3C//DTD SVG 20010904//EN"
 "http://www.w3.org/TR/2001/REC-SVG-20010904/DTD/svg10.dtd">
<svg version="1.0" xmlns="http://www.w3.org/2000/svg"
 width="512.000000pt" height="512.000000pt" viewBox="0 0 512.000000 512.000000"
 preserveAspectRatio="xMidYMid meet">

<g transform="translate(0.000000,512.000000) scale(0.100000,-0.100000)"
fill="#000000" stroke="none">
<path d="M2300 5113 c-54 -9 -130 -39 -255 -99 -365 -176 -727 -415 -1037
-684 -307 -265 -697 -811 -918 -1286 -64 -136 -81 -191 -87 -284 -10 -158 44
-300 161 -415 65 -64 125 -102 679 -425 335 -195 613 -364 619 -375 6 -11 21
-150 34 -310 23 -300 30 -337 80 -415 12 -19 109 -121 216 -227 226 -224 257
-244 396 -251 68 -4 93 -1 145 18 76 28 103 46 190 129 l68 65 257 -256 c141
-141 273 -264 292 -274 24 -13 57 -19 105 -19 89 0 131 23 233 128 85 88 112
140 112 217 0 97 -19 122 -295 400 l-255 256 60 59 59 58 63 -2 c162 -5 344
86 518 261 174 175 264 355 259 516 l-2 63 58 59 59 60 256 -255 c278 -276
303 -295 400 -295 77 0 129 27 217 112 105 102 128 144 128 233 0 48 -6 81
-19 105 -10 19 -133 151 -274 292 l-256 257 70 73 c117 122 149 197 142 333
-7 139 -30 173 -275 416 -267 265 -217 244 -669 278 -132 10 -249 23 -260 29
-10 6 -179 284 -374 619 -323 554 -361 614 -425 679 -126 127 -303 186 -475
157z m233 -193 c117 -44 130 -63 523 -735 196 -335 368 -622 382 -638 55 -59
85 -65 409 -91 251 -20 306 -27 339 -44 55 -29 389 -367 409 -414 21 -51 19
-124 -6 -178 -15 -34 -116 -141 -396 -422 -412 -412 -382 -372 -368 -489 15
-121 -48 -242 -210 -404 -162 -162 -283 -225 -404 -210 -117 14 -77 44 -489
-368 -281 -280 -388 -381 -422 -396 -54 -25 -127 -27 -178 -6 -47 20 -385 354
-414 410 -18 34 -24 85 -44 339 -25 322 -32 352 -91 408 -23 21 -305 188
-1170 695 -150 88 -218 185 -230 329 -7 84 13 148 111 344 174 348 370 643
622 937 180 209 490 458 831 666 151 91 465 253 543 279 71 23 174 19 253 -12z
m2417 -3045 c0 -42 -134 -175 -176 -175 -24 0 -67 38 -281 252 l-253 253 103
103 102 102 252 -253 c214 -213 253 -257 253 -282z m-1530 -1530 c0 -41 -135
-175 -176 -175 -23 0 -72 44 -281 252 l-253 253 102 102 103 103 252 -252
c217 -217 253 -257 253 -283z"/>
<path d="M2193 4496 c-23 -7 -106 -52 -185 -99 -324 -193 -637 -440 -824 -649
-237 -268 -539 -721 -566 -851 -14 -66 8 -151 54 -202 47 -54 401 -262 468
-276 64 -13 117 -3 171 34 39 26 55 48 189 252 115 176 273 375 391 495 168
170 410 358 644 500 111 67 152 114 170 198 15 70 -2 114 -121 314 -64 106
-128 206 -142 221 -60 64 -166 90 -249 63z m113 -170 c12 -8 69 -96 129 -195
125 -211 125 -212 37 -267 -230 -145 -403 -272 -593 -439 -182 -160 -411 -441
-574 -705 -62 -101 -96 -140 -122 -140 -23 0 -353 197 -380 227 -13 13 -23 32
-23 41 0 26 108 215 205 360 159 239 334 448 496 595 200 181 497 390 734 516
47 25 63 26 91 7z"/>
<path d="M2585 3286 c-361 -70 -640 -331 -736 -687 -19 -70 -23 -109 -23 -234
1 -181 18 -258 93 -410 278 -560 1010 -695 1469 -271 214 199 325 498 292 784
-46 390 -319 704 -699 804 -99 26 -299 33 -396 14z m360 -180 c33 -9 103 -37
155 -63 80 -39 108 -60 185 -137 102 -102 154 -184 190 -298 65 -205 49 -405
-46 -589 -175 -337 -558 -493 -919 -373 -114 38 -204 96 -300 193 -70 70 -94
104 -133 181 -68 136 -82 199 -81 355 0 120 3 138 33 225 18 52 44 115 58 140
114 197 315 340 535 380 73 12 250 5 323 -14z"/>
<path d="M2650 2664 c-135 -49 -209 -154 -210 -299 0 -123 72 -235 185 -287
73 -33 191 -32 260 1 63 32 124 93 156 156 33 68 34 188 2 257 -30 67 -95 132
-156 158 -68 30 -176 36 -237 14z m177 -174 c100 -61 93 -199 -12 -250 -101
-49 -205 18 -205 132 0 108 123 176 217 118z"/>
</g>
</svg>
