<?xml version="1.0" standalone="no"?>
<!DOCTYPE svg PUBLIC "-//W3C//DTD SVG 20010904//EN"
 "http://www.w3.org/TR/2001/REC-SVG-20010904/DTD/svg10.dtd">
<svg version="1.0" xmlns="http://www.w3.org/2000/svg"
 width="555.000000pt" height="555.000000pt" viewBox="0 0 555.000000 555.000000"
 preserveAspectRatio="xMidYMid meet">

<g transform="translate(0.000000,555.000000) scale(0.100000,-0.100000)"
fill="#000000" stroke="none">
<path d="M2513 3798 c-203 -214 -819 -870 -921 -980 l-25 -27 38 -43 c95 -105
827 -880 984 -1040 95 -98 179 -178 186 -178 18 0 1200 1241 1200 1260 0 8
-849 912 -1054 1122 -79 82 -147 148 -151 148 -4 0 -120 -118 -257 -262z m514
-130 c278 -293 676 -720 760 -815 l55 -63 -37 -42 c-83 -93 -543 -587 -779
-837 l-250 -263 -121 123 c-294 303 -950 1006 -950 1019 0 16 1055 1140 1070
1140 1 0 115 -118 252 -262z"/>
<path d="M2558 3403 c-227 -241 -449 -483 -509 -554 l-39 -46 43 -49 c202
-233 704 -764 721 -764 23 0 756 791 756 816 0 23 -739 814 -761 814 -4 0 -99
-98 -211 -217z"/>
</g>
</svg>
