<svg width="1280" height="1280" viewBox="0 0 1280 1280" fill="none" xmlns="http://www.w3.org/2000/svg">
<path d="M579.402 415.779C531.722 463.619 387.038 610.268 363.081 634.858L357.209 640.894L366.135 650.507C388.448 673.98 560.377 847.231 597.253 882.999C619.566 904.907 639.295 922.791 640.939 922.791C645.167 922.791 922.791 645.365 922.791 641.118C922.791 639.329 723.381 437.24 675.231 390.295C656.676 371.964 640.705 357.209 639.765 357.209C638.826 357.209 611.58 383.588 579.402 415.779ZM700.128 444.841C765.424 510.341 858.904 605.797 878.634 627.034L891.552 641.118L882.862 650.507C863.367 671.297 755.324 781.731 699.893 837.618L641.174 896.412L612.754 868.915C543.701 801.18 389.622 644.024 389.622 641.118C389.622 637.541 637.416 386.271 640.939 386.271C641.174 386.271 667.95 412.65 700.128 444.841Z" fill="black"/>
<path d="M589.971 504.082C536.654 557.957 484.512 612.056 470.419 627.928L461.259 638.212L471.359 649.166C518.804 701.253 636.712 819.958 640.705 819.958C646.107 819.958 818.271 643.13 818.271 637.541C818.271 632.399 644.697 455.571 639.53 455.571C638.591 455.571 616.277 477.479 589.971 504.082Z" fill="black"/>
</svg>
