<?xml version="1.0" standalone="no"?>
<!DOCTYPE svg PUBLIC "-//W3C//DTD SVG 20010904//EN"
 "http://www.w3.org/TR/2001/REC-SVG-20010904/DTD/svg10.dtd">
<svg version="1.0" xmlns="http://www.w3.org/2000/svg"
 width="280.000000pt" height="280.000000pt" viewBox="0 0 280.000000 280.000000"
 preserveAspectRatio="xMidYMid meet">

<g transform="translate(0.000000,280.000000) scale(0.100000,-0.100000)"
fill="#000000" stroke="none">
<path d="M1976 2655 c-3 -9 -6 -25 -6 -34 0 -16 -14 -19 -112 -24 -62 -4 -194
-7 -292 -8 -176 -1 -180 0 -181 20 -4 53 -57 51 -63 -3 l-3 -26 -178 0 c-98 0
-225 -3 -284 -6 l-105 -7 -4 24 c-4 32 -51 35 -56 3 -3 -20 -11 -21 -160 -27
-259 -11 -279 -10 -285 13 -3 12 -14 20 -27 20 -13 0 -24 -8 -27 -20 -4 -16
-14 -20 -48 -20 -47 0 -78 -21 -68 -45 7 -19 45 -29 83 -21 l30 6 0 -738 c0
-405 3 -916 7 -1134 l6 -398 -62 0 c-67 0 -101 -12 -101 -35 0 -23 34 -35 99
-35 54 0 60 -2 63 -22 2 -17 10 -23 28 -23 20 0 26 6 28 27 l3 27 220 1 219 1
0 -39 c0 -47 21 -72 45 -52 9 7 15 29 15 51 l0 39 128 0 c71 0 197 3 280 7
l152 6 0 -45 c0 -49 17 -72 44 -62 12 4 16 19 16 55 l0 49 300 0 300 0 0 -74
c0 -76 13 -104 44 -93 11 5 16 27 18 89 l3 83 268 3 267 2 0 -23 c0 -13 6 -32
14 -43 20 -26 50 -8 54 34 3 30 5 31 54 34 93 5 91 68 -2 68 l-47 0 -7 148
c-3 81 -8 505 -11 942 -3 437 -8 886 -11 997 l-6 201 24 4 c17 2 23 9 23 28
l0 25 -317 -3 -317 -3 -3 33 c-2 25 -8 34 -24 36 -13 2 -24 -4 -28 -13z m588
-532 c3 -236 9 -696 12 -1023 7 -583 6 -595 -12 -578 -11 9 -30 21 -44 26 -22
8 -28 20 -39 75 -21 106 -23 107 -184 106 -88 0 -147 17 -147 42 0 9 -7 20
-16 23 -26 10 -45 -14 -42 -52 3 -32 7 -36 48 -50 25 -8 85 -18 135 -21 l90
-6 38 -70 c22 -38 44 -83 49 -100 17 -47 39 -67 66 -60 21 5 23 3 22 -22 -5
-65 0 -85 20 -90 15 -4 20 -14 20 -39 l0 -34 -270 0 -270 0 0 303 c0 298 0
302 21 315 20 12 21 20 16 80 -3 41 -11 70 -19 76 -13 9 -16 125 -22 763 l-7
753 193 3 c106 1 225 3 264 5 l71 2 7 -427z m-591 -95 c4 -281 7 -611 7 -732
0 -250 6 -227 -94 -351 -58 -73 -66 -94 -41 -115 8 -7 15 -23 15 -35 0 -47 59
-34 75 16 4 11 15 19 26 19 18 0 19 -10 19 -288 l0 -289 -107 -6 c-58 -4 -137
-7 -176 -7 -59 0 -68 2 -63 16 3 9 6 40 6 69 l0 54 65 31 c63 30 124 80 143
117 5 10 10 39 11 65 1 43 -1 49 -29 63 -33 17 -63 75 -102 193 -17 52 -25 62
-43 62 -37 0 -38 -28 -4 -112 17 -43 29 -81 26 -84 -3 -3 -43 -9 -89 -14 -88
-8 -218 -44 -218 -60 0 -6 -4 -10 -10 -10 -5 0 -10 25 -10 55 0 44 4 56 20 65
26 14 27 68 1 142 -17 48 -19 87 -20 278 -1 207 1 222 17 215 9 -3 29 -9 45
-12 27 -5 27 -6 29 -92 4 -263 4 -271 -14 -271 -26 0 -48 -28 -48 -61 0 -21
13 -44 43 -77 24 -26 48 -60 55 -75 19 -43 41 -45 73 -6 16 19 29 39 29 45 0
6 17 34 39 62 33 44 38 59 37 99 -1 41 -4 48 -21 48 -14 0 -29 -17 -50 -57
-19 -38 -36 -58 -48 -58 -10 0 -22 -11 -27 -25 l-10 -26 -30 34 c-16 19 -30
39 -30 43 0 5 9 -2 20 -16 16 -20 22 -23 37 -14 20 12 21 40 12 320 -3 115 -2
134 14 151 23 27 22 38 -10 58 -20 13 -31 15 -43 7 -12 -7 -21 -7 -28 0 -6 6
-29 9 -51 6 l-41 -4 0 309 0 308 22 -15 c25 -18 64 -21 73 -6 3 6 11 10 17 10
5 0 -11 -23 -36 -51 -51 -56 -65 -91 -46 -114 18 -21 50 -18 77 7 l23 22 20
-22 c24 -25 103 -39 142 -24 15 5 36 8 47 5 13 -3 25 5 40 26 22 30 23 31 46
13 14 -9 25 -27 25 -39 0 -26 30 -46 50 -33 21 13 21 151 0 225 l-17 60 -134
1 c-83 1 -139 -3 -147 -9 -8 -6 -32 -10 -55 -9 -23 1 -66 -2 -94 -6 l-53 -9 0
203 c0 112 3 205 8 205 4 1 133 5 287 8 154 4 283 8 286 9 3 1 9 -228 12 -510z
m-654 -309 l-1 -800 -22 16 c-39 28 -69 37 -92 26 -19 -8 -24 -4 -45 40 -18
39 -27 49 -43 47 -30 -4 -32 -55 -5 -117 12 -28 25 -51 29 -51 13 0 30 -51 30
-90 0 -50 -13 -83 -51 -131 -27 -35 -36 -39 -74 -39 -50 0 -141 -31 -179 -61
l-26 -20 0 23 c0 29 -33 83 -59 98 -25 13 -31 80 -7 80 31 0 113 -45 139 -76
18 -22 37 -34 53 -34 21 0 24 4 24 40 0 22 -11 71 -24 109 -23 66 -23 68 -5
79 27 17 27 102 0 126 -10 9 -26 34 -36 55 -13 29 -30 45 -69 65 -28 14 -61
26 -73 26 -16 0 -22 7 -25 35 -2 19 -2 35 1 35 7 0 79 -49 114 -77 38 -30 65
-29 79 3 10 20 8 42 -5 107 -14 70 -22 86 -51 112 -19 17 -44 49 -55 73 -24
48 -50 55 -74 20 -15 -21 -16 24 -16 524 l-1 547 153 4 c83 1 212 4 285 5
l133 2 -2 -801z m-627 199 l4 -593 -23 -18 c-13 -10 -23 -25 -23 -33 0 -7 -11
-16 -24 -20 -13 -3 -36 -19 -50 -35 -14 -15 -43 -37 -65 -48 -49 -26 -118
-105 -133 -154 -8 -26 -8 -50 -1 -81 7 -30 7 -61 -1 -95 -8 -41 -6 -69 8 -139
10 -48 24 -98 32 -112 23 -43 101 -253 108 -293 4 -21 10 -45 13 -53 4 -12
-18 -14 -134 -14 l-140 0 -6 847 c-4 467 -7 977 -7 1135 l0 287 158 4 c86 1
185 4 218 5 l62 2 4 -592z m170 -625 c9 -10 19 -38 23 -62 l7 -44 -48 34 c-27
18 -51 35 -53 36 -5 3 41 50 50 52 3 1 13 -7 21 -16z m-162 -140 c0 -25 -4
-33 -17 -33 -10 0 -40 -14 -68 -30 -27 -16 -57 -30 -67 -30 -9 0 -40 -18 -68
-41 -46 -36 -51 -38 -45 -18 11 35 55 83 99 110 22 13 51 36 65 50 19 19 36
26 63 25 36 -1 38 -3 38 -33z m0 -117 c0 -13 -6 -27 -12 -30 -24 -12 -67 -41
-120 -82 -29 -22 -70 -51 -92 -64 l-38 -23 7 34 c9 44 79 116 125 130 19 5 51
21 70 34 45 31 60 31 60 1z m134 12 c14 -6 28 -19 31 -30 4 -10 18 -32 32 -49
l26 -30 -48 30 c-27 17 -57 31 -66 31 -33 0 -49 12 -49 36 0 19 5 24 25 24 13
0 35 -5 49 -12z m5 -127 c11 -7 21 -13 21 -14 0 -1 -22 0 -50 1 -41 3 -50 7
-50 22 0 16 5 17 29 10 15 -4 38 -13 50 -19z m-139 1 c0 -12 -12 -21 -41 -29
-38 -10 -39 -10 -22 6 16 15 53 40 61 41 1 0 2 -8 2 -18z m171 -95 c15 -12 30
-34 33 -49 6 -27 6 -27 -21 -16 -16 7 -37 18 -48 25 -11 7 -32 13 -47 13 -23
0 -28 4 -28 25 0 23 4 25 43 25 29 0 50 -7 68 -23z m-171 0 c0 -7 -21 -19 -47
-26 -52 -15 -85 -35 -141 -87 -39 -35 -47 -34 -57 6 -8 34 17 56 86 76 30 8
74 22 99 29 58 17 60 18 60 2z m601 -37 c18 0 19 -13 19 -275 l0 -275 -177 0
c-98 0 -188 -3 -201 -6 -31 -9 -48 36 -56 151 -5 73 -3 94 9 113 22 30 76 52
155 62 61 8 68 12 110 58 49 52 70 104 70 171 l0 42 26 -20 c15 -12 35 -21 45
-21z m-601 -76 c0 -21 -4 -33 -10 -29 -6 3 -39 -20 -75 -51 -73 -64 -83 -96
-40 -116 24 -11 29 -8 75 43 l49 54 1 -192 0 -193 -48 0 -49 0 -12 73 c-7 39
-17 82 -22 95 -5 13 -9 30 -9 39 0 9 -13 44 -29 77 -18 39 -27 71 -24 88 6 32
75 101 128 127 57 29 65 27 65 -15z m82 -164 c2 -14 13 -29 25 -35 16 -7 20
-15 17 -35 -6 -29 10 -207 21 -233 6 -15 1 -17 -39 -17 l-46 0 0 182 c0 110 4
178 9 173 5 -6 11 -21 13 -35z m998 13 c0 -6 -13 -22 -29 -36 -23 -19 -45 -25
-106 -30 -43 -4 -83 -3 -89 2 -19 15 -135 44 -156 38 -15 -4 -20 0 -20 14 0
16 10 19 98 21 194 7 302 4 302 -9z m-322 -160 c19 -12 53 -25 77 -29 l43 -6
4 -64 3 -64 -102 0 -103 0 0 126 0 127 23 -34 c12 -18 37 -44 55 -56z"/>
<path d="M2084 1876 c-3 -7 2 -38 10 -67 8 -30 20 -81 26 -114 7 -33 20 -74
29 -90 17 -29 17 -34 -5 -125 -13 -52 -24 -103 -24 -113 0 -10 -12 -58 -27
-107 -22 -74 -24 -92 -13 -105 7 -8 18 -15 26 -15 30 0 50 52 120 308 15 57
42 133 60 170 18 36 30 72 27 79 -9 23 -48 14 -81 -18 l-31 -30 -6 38 c-19
120 -54 203 -86 203 -11 0 -22 -6 -25 -14z"/>
<path d="M1678 1849 c-27 -15 -22 -48 9 -60 35 -13 58 8 49 45 -7 27 -28 33
-58 15z"/>
<path d="M1553 1828 c-14 -7 -23 -20 -23 -34 0 -15 8 -25 23 -30 12 -4 36 -17
53 -30 59 -46 117 -14 59 31 -16 13 -25 28 -20 34 19 32 -44 52 -92 29z"/>
<path d="M1498 1693 c-32 -20 -41 -38 -33 -64 8 -24 63 -26 71 -4 8 20 61 19
108 0 27 -12 42 -13 56 -5 33 17 23 37 -31 64 -60 31 -130 34 -171 9z"/>
<path d="M1831 1617 c-13 -34 -104 -114 -139 -122 -41 -9 -49 -25 -53 -109 -3
-58 -1 -70 14 -80 26 -16 43 11 52 79 6 50 9 55 40 65 21 7 53 34 83 68 63 73
75 95 60 110 -19 19 -48 14 -57 -11z"/>
<path d="M1817 1428 c-10 -13 -28 -38 -42 -57 -28 -39 -33 -81 -10 -81 8 0 15
-4 15 -9 0 -5 9 -13 21 -16 42 -14 66 38 73 155 2 34 -34 39 -57 8z"/>
<path d="M1752 1218 c-21 -21 -13 -45 27 -87 42 -44 78 -53 105 -25 25 25 19
44 -19 60 -20 8 -40 25 -45 39 -10 27 -47 34 -68 13z"/>
<path d="M1128 1968 c-25 -24 -52 -54 -61 -68 -30 -47 -87 -220 -87 -265 0
-43 -12 -65 -25 -45 -3 5 -17 10 -31 10 -21 0 -24 -4 -24 -40 0 -25 12 -64 34
-107 18 -38 48 -108 66 -158 18 -49 39 -95 47 -101 7 -6 16 -25 19 -42 8 -39
35 -65 59 -56 20 8 16 39 -14 119 -10 28 -31 93 -46 145 -15 52 -34 109 -42
127 -13 29 -13 34 7 73 15 30 20 52 16 78 -8 52 50 204 81 212 28 7 105 122
97 144 -11 28 -50 18 -96 -26z"/>
<path d="M1194 1580 c-24 -10 -64 -61 -64 -82 0 -8 5 -19 12 -26 21 -21 48
-13 69 22 11 19 27 37 35 40 9 4 14 15 12 28 -3 25 -30 33 -64 18z"/>
</g>
</svg>
