<svg width="640" height="640" viewBox="0 0 640 640" fill="none" xmlns="http://www.w3.org/2000/svg">
<path d="M253.225 1.76166L251.337 3.68356L254.77 19.6994C256.573 28.4548 263.782 63.049 270.734 96.5755C277.686 129.995 283.779 158.29 284.208 159.358C284.723 160.639 285.753 161.173 287.212 160.959C291.589 160.319 291.504 158.61 286.783 135.868C284.294 124.23 277.085 89.5286 270.648 58.6713C264.211 27.8141 258.632 1.9752 258.117 1.22779C256.916 -0.587337 255.371 -0.373793 253.225 1.76166Z" fill="black"/>
<path d="M328.752 9.983C328.065 10.944 327.207 28.6682 326.091 64.1166C325.147 93.1587 324.203 123.909 323.86 132.451C323.345 147.719 323.345 148.147 325.061 148.787C327.464 149.748 330.297 147.826 330.726 144.837C331.155 142.167 334.76 25.3582 334.674 15.1081C334.674 8.48819 334.674 8.48819 332.185 8.48819C330.812 8.48819 329.267 9.12882 328.752 9.983Z" fill="black"/>
<path d="M388.572 20.9806C387.8 22.0484 386.856 24.6109 386.341 26.6396C385.912 28.6682 379.303 55.3613 371.665 86.005C364.112 116.542 357.847 142.381 357.847 143.342C357.847 146.225 362.653 145.691 364.198 142.701C366 139.071 395.009 21.6213 394.323 20.34C393.464 18.5249 390.031 18.952 388.572 20.9806Z" fill="black"/>
<path d="M456.031 22.1551C454.143 23.6499 395.524 145.477 395.953 146.865C396.468 148.467 399.73 148.894 401.274 147.506C401.789 147.079 408.398 134.053 415.951 118.464C423.503 102.875 436.892 75.3278 445.732 57.1765C454.572 39.0252 461.524 23.4364 461.352 22.689C460.837 21.1942 457.576 20.8739 456.031 22.1551Z" fill="black"/>
<path d="M165.168 49.4889C164.31 50.2363 163.795 51.5176 164.053 52.3717C164.396 53.2259 171.09 63.6896 179.072 75.7549C186.968 87.8202 204.82 114.834 218.724 135.868C232.541 156.902 244.471 174.413 245.158 174.733C246.703 175.48 250.565 173.345 250.565 171.743C250.565 170.462 250.05 169.715 211.514 110.99C197.782 90.1692 183.106 67.747 178.9 61.3406C174.695 54.8275 170.833 49.2753 170.318 48.8482C168.945 47.567 166.971 47.8873 165.168 49.4889Z" fill="black"/>
<path d="M85.6079 91.7707C82.089 94.44 77.3686 89.9556 169.46 171.316C197.439 196.087 195.722 194.699 198.383 193.952C202.331 192.671 201.902 190.322 197.095 185.944C176.24 166.725 90.1566 91.3436 88.7834 91.0233C87.8393 90.8098 86.3803 91.2368 85.6079 91.7707Z" fill="black"/>
<path d="M18.4064 157.329C17.5481 158.076 17.0332 159.358 17.2906 160.212C17.5481 161.066 30.0786 166.725 47.2438 173.665C155.47 217.335 154.526 217.015 156.757 215.733C158.045 214.986 158.731 213.812 158.56 212.744C158.302 210.929 156.328 210.075 71.6182 175.907C55.5689 169.501 37.803 162.347 32.1385 159.998C20.3804 155.3 20.552 155.3 18.4064 157.329Z" fill="black"/>
<path d="M340.253 167.045C334.245 168.433 263.61 184.129 237.09 190.001C229.537 191.71 222.5 193.525 221.47 194.165C218.552 196.194 217.951 198.863 218.466 208.259C218.809 214.559 218.552 217.976 217.779 219.791C217.007 221.392 210.742 225.984 198.64 233.671C166.456 254.065 145.428 270.294 117.707 296.24C92.9031 319.409 77.197 336.386 56.5988 362.652C25.6158 401.838 6.47669 434.403 2.01376 455.331C-3.99404 484.159 3.47279 516.405 23.9851 549.824C31.1086 561.356 51.5351 586.874 62.5208 597.979C70.7601 606.414 89.8134 618.906 101.829 623.818C118.479 630.651 140.622 636.096 162.593 638.659C179.759 640.688 225.246 640.367 245.844 638.018C370.549 624.138 502.635 566.054 580.993 490.459C592.837 479.034 614.036 453.195 620.816 441.877C634.549 418.815 641.329 395.111 639.784 375.251C637.638 347.491 624.421 302.86 610.775 277.341C601.677 260.258 589.748 245.843 577.475 236.874C566.489 228.973 531.901 212.744 507.183 203.989C461.524 187.866 408.312 177.189 372.866 177.189H361.623L357.847 172.384C355.701 169.715 352.697 167.045 350.981 166.511C347.462 165.337 348.063 165.23 340.253 167.045ZM346.432 181.566C347.719 182.207 349.779 183.702 350.895 184.983C353.212 187.759 355.358 190.962 399.558 258.976C407.54 271.255 408.312 273.391 406.424 277.021C404.622 280.438 402.905 280.971 374.583 287.164C360.936 290.154 347.805 293.037 345.402 293.571C327.464 298.055 292.963 305.316 289.873 305.316C285.667 305.316 282.492 303.073 278.973 297.735C277.686 295.706 268.416 275.74 258.461 253.424C245.93 225.45 240.266 211.676 240.266 209.434C240.266 205.59 243.956 201.212 248.162 200.038C259.405 197.048 336.047 180.605 339.566 180.499C341.969 180.392 345.059 180.926 346.432 181.566ZM427.966 197.369C467.618 203.134 504.609 214.132 541.943 231.322C564.086 241.572 572.497 247.765 583.568 262.179C590.692 271.575 594.811 278.729 600.304 291.755C603.651 299.763 610.174 319.837 610.174 322.292C610.174 322.826 606.226 320.798 601.42 317.701C581.165 304.675 550.783 295.706 515.766 292.396C502.806 291.222 447.449 291.755 441.527 293.143C439.124 293.677 438.609 293.143 434.832 286.951L430.627 280.224L438.694 279.477C485.212 274.779 508.728 268.372 516.452 258.015C521.001 252.036 518.341 243.601 509.501 235.273C499.888 226.304 490.447 221.499 471.137 215.733C444.101 207.726 415.264 202.921 394.237 202.814H383.766L381.535 199.184C380.333 197.155 379.303 195.126 379.303 194.699C379.303 193.311 412.689 195.233 427.966 197.369ZM412.346 213.491C434.661 216.054 466.416 223.421 481.607 229.614C493.966 234.632 503.235 241.999 505.467 248.726C507.527 254.919 502.635 259.83 490.362 263.674C478.346 267.518 450.195 271.148 432.515 271.148H425.22L407.883 242.427C398.271 226.731 390.46 213.491 390.46 213.064C390.46 212.103 401.618 212.317 412.346 213.491ZM223.101 241.786C223.701 243.281 224.045 244.669 223.873 244.882C223.701 245.096 218.294 248.619 211.943 252.677C188.084 267.838 165.855 286.203 138.562 313.11C126.375 325.175 118.393 336.493 113.158 349.199C107.923 362.118 108.008 370.126 113.501 374.931C116.076 377.173 117.106 377.387 128.692 377.28C140.365 377.28 141.91 376.96 154.44 372.902C182.763 363.613 219.668 346.636 255.886 326.35L260.692 323.574L262.065 326.136C262.838 327.524 263.439 329.126 263.439 329.553C263.439 329.98 264.211 331.582 265.155 333.076C266.099 334.571 266.872 336.28 266.872 336.92C266.872 337.561 261.207 340.657 254.255 343.754C154.268 388.064 79.4285 449.885 53.2516 509.785C50.1619 516.725 45.4415 533.275 45.4415 536.905C45.4415 540.428 44.3258 539.574 39.6912 532.42C24.9292 509.464 17.8057 488.857 17.7198 468.143C17.634 446.255 22.6977 433.336 42.9526 402.905C81.9174 344.501 142.939 286.31 205.506 248.086C213.488 243.174 220.44 239.117 220.955 239.117C221.556 239.117 222.5 240.291 223.101 241.786ZM242.583 284.068C249.792 299.55 255.714 312.79 255.714 313.43C255.714 314.071 253.912 315.672 251.68 316.847C249.363 318.021 241.038 322.719 232.97 327.204C190.487 351.121 154.011 366.603 136.846 367.884C128.864 368.525 124.573 366.603 123.2 361.691C121.569 355.819 128.177 341.191 138.133 328.699C147.746 316.633 176.497 290.901 198.211 274.992C210.313 266.023 227.563 255.026 228.679 255.453C229.108 255.666 235.374 268.586 242.583 284.068ZM517.053 309.586C556.018 312.79 584.598 322.186 603.823 337.988C642.959 370.126 630.429 422.979 570.694 478.714C500.746 543.952 376.9 599.58 262.58 616.984C234.258 621.362 226.448 621.896 193.491 621.896C164.653 621.789 159.246 621.575 146.887 619.44C108.352 612.927 83.2906 600.755 69.2152 581.856C36.1723 537.546 76.682 469.104 172.463 407.497C273.48 342.472 417.839 301.472 517.053 309.586Z" fill="black"/>
<path d="M336.39 192.457L331.67 202.28L327.808 201.746C322.229 201.106 318.538 201.106 313.561 202.067L309.269 202.921L307.724 198.863C305.321 192.137 303.176 189.254 301.974 190.749C301.116 191.816 301.373 193.418 303.347 198.543C304.721 202.067 305.665 205.056 305.407 205.27C305.235 205.377 303.347 206.978 301.202 208.58C299.056 210.288 295.795 213.705 293.907 216.267L290.473 220.859L274.596 215.093C265.842 211.89 258.031 209.22 257.259 209.22C256.315 209.22 255.714 209.968 255.714 211.249C255.714 212.317 256.401 213.491 257.259 213.812C276.741 220.645 287.212 224.596 287.727 225.129C288.07 225.557 287.985 227.372 287.384 229.08C286.869 230.788 286.182 235.807 285.839 240.184L285.324 248.192L276.312 250.862C269.875 252.89 267.215 254.065 267.043 255.346C266.871 256.307 267.129 257.268 267.472 257.588C267.901 257.909 272.021 257.054 276.741 255.56C281.462 254.172 285.753 252.997 286.182 252.997C286.697 252.997 288.156 255.773 289.615 259.083C291.246 263.034 293.649 266.557 296.653 269.44L301.116 273.818L298.799 277.021C297.511 278.729 294.078 283.427 291.16 287.378C288.156 291.222 285.753 295.172 285.753 296.133C285.753 300.084 289.272 297.201 296.825 286.844L304.892 275.74L309.698 277.128C315.792 278.943 320.083 278.943 326.177 277.128L331.069 275.74L333.815 283.641C336.39 290.901 338.107 292.93 339.394 290.367C339.652 289.834 338.707 285.883 337.248 281.719C335.789 277.448 334.76 273.924 334.845 273.924C335.017 273.818 337.334 271.682 340.081 269.226C343.943 265.596 349.007 258.122 351.496 252.143C351.496 252.036 360.164 255.987 370.635 261.005C390.46 270.508 393.378 271.362 392.863 268.159C392.606 266.45 388.143 264.101 359.134 250.541L353.126 247.658V239.117V230.575L356.559 229.4C369.261 225.236 371.064 224.168 369.09 221.713C368.489 220.965 365.914 221.392 360.078 223.208L352.01 225.877L350.637 222.353C348.749 217.442 342.827 209.647 338.879 206.871C336.991 205.59 335.532 204.309 335.532 203.989C335.532 203.668 337.506 199.397 339.823 194.486C344.372 184.983 344.973 182.527 342.655 182.527C341.626 182.634 339.394 186.158 336.39 192.457ZM330.468 215.093C342.055 220.004 347.204 234.632 342.055 248.299C333.73 270.508 303.776 272.109 296.567 250.648C294.765 245.309 294.851 237.408 296.825 232.07C299.571 224.489 306.695 217.335 314.076 214.452C317.766 213.064 326.52 213.384 330.468 215.093Z" fill="black"/>
<path d="M459.979 327.845C344.372 337.241 206.708 393.296 133.155 461.097C120.281 472.948 103.202 493.769 97.4518 504.66C90.5 517.899 88.7834 524.092 88.7834 536.478C88.7834 545.981 89.0409 547.796 91.1866 553.241C98.4817 571.819 121.483 586.02 153.582 591.893C164.053 593.815 187.826 596.27 188.427 595.416C188.684 595.096 186.367 590.184 183.363 584.419C169.116 556.871 162.937 536.585 166.456 528.47C167.915 525.16 172.034 524.946 192.289 527.509C217.35 530.712 257.774 531.032 277.342 528.15C354.07 516.832 427.966 478.927 503.235 412.302C510.788 405.575 517.397 399.916 517.997 399.596C518.512 399.382 528.726 411.661 540.741 426.929L562.455 454.69L565.888 451.273C573.012 444.44 585.885 427.356 590.692 418.388C601.935 397.247 603.394 380.056 595.155 364.574C580.135 336.493 528.039 322.292 459.979 327.845ZM523.319 350.801L531.129 351.548L528.554 355.499C522.031 365.535 493.194 396.072 475.685 411.554C385.483 491.1 279.23 523.131 171.176 503.378C159.418 501.136 131.868 494.303 131.01 493.342C130.237 492.381 145.257 478.287 158.731 467.396C224.989 413.69 307.982 375.038 390.46 359.342C411.488 355.392 434.661 352.295 455.688 350.907C465.386 350.16 515.766 350.16 523.319 350.801Z" fill="black"/>
</svg>
