<?xml version="1.0" standalone="no"?>
<!DOCTYPE svg PUBLIC "-//W3C//DTD SVG 20010904//EN" "http://www.w3.org/TR/2001/REC-SVG-20010904/DTD/svg10.dtd">
<svg xmlns="http://www.w3.org/2000/svg" version="1.0" width="800.000000pt" height="800.000000pt" viewBox="0 0 800.000000 800.000000" preserveAspectRatio="xMidYMid meet">
<metadata>
Created by potrace 1.16, written by Peter Selinger 2001-2019
<meta name="Producer" content="Online-Convert"/></metadata>
<g transform="translate(0.000000,800.000000) scale(0.100000,-0.100000)" fill="#000000" stroke="none">
<path d="M3241 7563 l-22 -18 40 -150 c21 -82 105 -406 186 -720 81 -313 152 -578 157 -588 6 -12 18 -17 35 -15 51 6 50 22 -5 235 -29 109 -113 434 -188 723 -75 289 -140 531 -146 538 -14 17 -32 15 -57 -5z"/>
<path d="M4121 7486 c-8 -9 -18 -175 -31 -507 -11 -272 -22 -560 -26 -640 -6 -143 -6 -147 14 -153 28 -9 61 9 66 37 5 25 47 1119 46 1215 0 62 0 62 -29 62 -16 0 -34 -6 -40 -14z"/>
<path d="M4818 7383 c-9 -10 -20 -34 -26 -53 -5 -19 -82 -269 -171 -556 -88 -286 -161 -528 -161 -537 0 -27 56 -22 74 6 21 34 359 1134 351 1146 -10 17 -50 13 -67 -6z"/>
<path d="M5604 7372 c-22 -14 -705 -1155 -700 -1168 6 -15 44 -19 62 -6 6 4 83 126 171 272 88 146 244 404 347 574 103 170 184 316 182 323 -6 14 -44 17 -62 5z"/>
<path d="M2215 7116 c-10 -7 -16 -19 -13 -27 4 -8 82 -106 175 -219 92 -113 300 -366 462 -563 161 -197 300 -361 308 -364 18 -7 63 13 63 28 0 12 -6 19 -455 569 -160 195 -331 405 -380 465 -49 61 -94 113 -100 117 -16 12 -39 9 -60 -6z"/>
<path d="M1288 6720 c-41 -25 -96 17 977 -745 326 -232 306 -219 337 -212 46 12 41 34 -15 75 -243 180 -1246 886 -1262 889 -11 2 -28 -2 -37 -7z"/>
<path d="M505 6106 c-10 -7 -16 -19 -13 -27 3 -8 149 -61 349 -126 1261 -409 1250 -406 1276 -394 15 7 23 18 21 28 -3 17 -26 25 -1013 345 -187 60 -394 127 -460 149 -137 44 -135 44 -160 25z"/>
<path d="M4255 6015 c-70 -13 -893 -160 -1202 -215 -88 -16 -170 -33 -182 -39 -34 -19 -41 -44 -35 -132 4 -59 1 -91 -8 -108 -9 -15 -82 -58 -223 -130 -375 -191 -620 -343 -943 -586 -289 -217 -472 -376 -712 -622 -361 -367 -584 -672 -636 -868 -70 -270 17 -572 256 -885 83 -108 321 -347 449 -451 96 -79 318 -196 458 -242 194 -64 452 -115 708 -139 200 -19 730 -16 970 6 1453 130 2992 674 3905 1382 138 107 385 349 464 455 160 216 239 438 221 624 -25 260 -179 678 -338 917 -106 160 -245 295 -388 379 -128 74 -531 226 -819 308 -532 151 -1152 251 -1565 251 l-131 0 -44 45 c-25 25 -60 50 -80 55 -41 11 -34 12 -125 -5z m72 -136 c15 -6 39 -20 52 -32 27 -26 52 -56 567 -693 93 -115 102 -135 80 -169 -21 -32 -41 -37 -371 -95 -159 -28 -312 -55 -340 -60 -209 -42 -611 -110 -647 -110 -49 0 -86 21 -127 71 -15 19 -123 206 -239 415 -146 262 -212 391 -212 412 0 36 43 77 92 88 131 28 1024 182 1065 183 28 1 64 -4 80 -10z m950 -148 c462 -54 893 -157 1328 -318 258 -96 356 -154 485 -289 83 -88 131 -155 195 -277 39 -75 115 -263 115 -286 0 -5 -46 14 -102 43 -236 122 -590 206 -998 237 -151 11 -796 6 -865 -7 -28 -5 -34 0 -78 58 l-49 63 94 7 c542 44 816 104 906 201 53 56 22 135 -81 213 -112 84 -222 129 -447 183 -315 75 -651 120 -896 121 l-122 0 -26 34 c-14 19 -26 38 -26 42 0 13 389 -5 567 -25z m-182 -151 c260 -24 630 -93 807 -151 144 -47 252 -116 278 -179 24 -58 -33 -104 -176 -140 -140 -36 -468 -70 -674 -70 l-85 0 -202 269 c-112 147 -203 271 -203 275 0 9 130 7 255 -4z m-2205 -265 c7 -14 11 -27 9 -29 -2 -2 -65 -35 -139 -73 -278 -142 -537 -314 -855 -566 -142 -113 -235 -219 -296 -338 -61 -121 -60 -196 4 -241 30 -21 42 -23 177 -22 136 0 154 3 300 41 330 87 760 246 1182 436 l56 26 16 -24 c9 -13 16 -28 16 -32 0 -4 9 -19 20 -33 11 -14 20 -30 20 -36 0 -6 -66 -35 -147 -64 -1165 -415 -2037 -994 -2342 -1555 -36 -65 -91 -220 -91 -254 0 -33 -13 -25 -67 42 -172 215 -255 408 -256 602 -1 205 58 326 294 611 454 547 1165 1092 1894 1450 93 46 174 84 180 84 7 0 18 -11 25 -25z m227 -396 c84 -145 153 -269 153 -275 0 -6 -21 -21 -47 -32 -27 -11 -124 -55 -218 -97 -495 -224 -920 -369 -1120 -381 -93 -6 -143 12 -159 58 -19 55 58 192 174 309 112 113 447 354 700 503 141 84 342 187 355 183 5 -2 78 -123 162 -268z m3198 -239 c454 -30 787 -118 1011 -266 456 -301 310 -796 -386 -1318 -815 -611 -2258 -1132 -3590 -1295 -330 -41 -421 -46 -805 -46 -336 1 -399 3 -543 23 -449 61 -741 175 -905 352 -385 415 87 1056 1203 1633 1177 609 2859 993 4015 917z"/>
<path d="M4210 5777 l-55 -92 -45 5 c-65 6 -108 6 -166 -3 l-50 -8 -18 38 c-28 63 -53 90 -67 76 -10 -10 -7 -25 16 -73 16 -33 27 -61 24 -63 -2 -1 -24 -16 -49 -31 -25 -16 -63 -48 -85 -72 l-40 -43 -185 54 c-102 30 -193 55 -202 55 -11 0 -18 -7 -18 -19 0 -10 8 -21 18 -24 227 -64 349 -101 355 -106 4 -4 3 -21 -4 -37 -6 -16 -14 -63 -18 -104 l-6 -75 -105 -25 c-75 -19 -106 -30 -108 -42 -2 -9 1 -18 5 -21 5 -3 53 5 108 19 55 13 105 24 110 24 6 0 23 -26 40 -57 19 -37 47 -70 82 -97 l52 -41 -27 -30 c-15 -16 -55 -60 -89 -97 -35 -36 -63 -73 -63 -82 0 -37 41 -10 129 87 l94 104 56 -13 c71 -17 121 -17 192 0 l57 13 32 -74 c30 -68 50 -87 65 -63 3 5 -8 42 -25 81 -17 40 -29 73 -28 73 2 1 29 21 61 44 45 34 104 104 133 160 0 1 101 -36 223 -83 231 -89 265 -97 259 -67 -3 16 -55 38 -393 165 l-70 27 0 80 0 80 40 11 c148 39 169 49 146 72 -7 7 -37 3 -105 -14 l-94 -25 -16 33 c-22 46 -91 119 -137 145 -22 12 -39 24 -39 27 0 3 23 43 50 89 53 89 60 112 33 112 -12 -1 -38 -34 -73 -93z m-69 -212 c135 -46 195 -183 135 -311 -97 -208 -446 -223 -530 -22 -21 50 -20 124 3 174 32 71 115 138 201 165 43 13 145 10 191 -6z"/>
<path d="M5650 4509 c-1347 -88 -2951 -613 -3808 -1248 -150 -111 -349 -306 -416 -408 -81 -124 -101 -182 -101 -298 0 -89 3 -106 28 -157 85 -174 353 -307 727 -362 122 -18 399 -41 406 -33 3 3 -24 49 -59 103 -166 258 -238 448 -197 524 17 31 65 33 301 9 292 -30 763 -33 991 -6 894 106 1755 461 2632 1085 88 63 165 116 172 119 6 2 125 -113 265 -256 l253 -260 40 32 c83 64 233 224 289 308 131 198 148 359 52 504 -175 263 -782 396 -1575 344z m738 -215 l91 -7 -30 -37 c-76 -94 -412 -380 -616 -525 -1051 -745 -2289 -1045 -3548 -860 -137 21 -458 85 -468 94 -9 9 166 141 323 243 772 503 1739 865 2700 1012 245 37 515 66 760 79 113 7 700 7 788 1z"/>
</g>
</svg>
