<svg width="920" height="739" viewBox="0 0 920 739" fill="none" xmlns="http://www.w3.org/2000/svg">
<path d="M89.1314 3.38085C88.0045 5.22495 87.0824 6.96659 87.0824 7.17149C87.0824 7.37639 84.7261 12.6013 81.8575 18.6459C78.9889 24.6904 75.5056 32.2717 74.0713 35.3452C72.637 38.4187 70.588 42.6192 69.461 44.6682C68.4365 46.7172 67.6169 49.176 67.6169 50.2005C67.6169 51.1225 70.2806 60.0356 73.559 69.9733C76.9399 79.9109 82.2673 96.4054 85.4432 106.548C91.1804 124.374 93.8441 132.775 102.245 158.797C104.396 165.559 107.982 176.624 110.031 183.385C112.183 190.147 114.744 197.933 115.768 200.802C116.69 203.568 119.149 211.252 121.198 217.706C129.804 245.06 131.443 249.978 132.365 250.9C132.775 251.515 133.185 252.744 133.185 253.871C133.185 254.895 134.619 260.018 136.361 265.14C143.737 286.552 144.147 300.69 137.898 306.018C136.053 307.555 133.39 307.76 119.354 307.862C110.339 307.862 98.4543 308.169 92.922 308.579L82.9844 309.194L74.1737 317.39C69.461 321.898 63.314 328.352 60.7528 331.835C58.0891 335.216 55.3229 338.494 54.6058 338.904C53.8886 339.314 53.2739 340.134 53.2739 340.646C53.2739 341.158 51.5323 344.232 49.3808 347.51C32.8864 373.02 26.5345 405.394 32.1693 435.412C34.0134 445.35 39.6481 464.815 42.5167 471.167C48.6637 484.895 56.3474 499.956 58.7038 503.029C59.1136 503.541 62.0846 507.947 65.2606 512.762C68.4365 517.577 74.0713 525.056 77.657 529.359L84.2138 537.35H90.7706C103.065 537.35 109.519 542.062 109.621 551.18C109.621 555.893 109.109 557.123 103.474 565.011C100.094 569.826 94.8686 577.203 92 581.403C89.029 585.604 86.1604 589.599 85.6481 590.214C85.0334 590.829 81.755 595.439 78.3742 600.356C74.9933 605.274 70.3831 611.728 68.1292 614.699C63.1091 621.461 51.1225 638.365 49.6882 640.619C49.1759 641.541 48.3563 642.566 48.049 642.873C47.7416 643.18 46 645.639 44.0535 648.508C42.1069 651.274 40.3653 653.835 39.9555 654.143C39.6481 654.45 37.1893 657.831 34.4232 661.826C31.7595 665.719 27.4566 671.764 24.9978 675.145C20.49 681.189 13.7283 690.82 11.7817 693.996C11.2695 694.815 10.245 696.045 9.63029 696.659C9.11804 697.172 7.27394 699.733 5.63474 702.294C4.098 704.855 2.15145 707.314 1.33185 707.724C0.614699 708.134 0 709.261 0 709.978C0 711.31 9.32294 711.515 68.4365 711.515H136.873L139.024 704.548C140.151 700.757 141.893 694.918 142.815 691.537C145.069 683.443 148.552 672.071 150.192 666.949C150.909 664.695 151.933 661.007 152.548 658.753C153.06 656.499 154.187 652.606 155.109 650.045C155.929 647.483 157.465 642.668 158.388 639.287C160.232 632.423 162.998 622.895 165.866 613.675C166.891 610.294 168.633 604.557 169.555 600.869C171.194 594.619 172.116 591.443 177.136 574.949C178.16 571.466 180.107 565.319 181.234 561.221C183.795 552.82 187.791 546.775 193.323 543.087L197.216 540.423H220.882C233.893 540.423 257.047 540.731 272.414 541.14L300.281 541.755L293.826 545.341C290.241 547.287 284.606 551.078 281.225 553.844C274.463 559.172 262.272 571.568 262.272 573.207C262.272 573.822 261.862 574.232 261.452 574.232C260.325 574.232 253.154 586.321 250.08 593.185C241.577 612.343 239.22 631.501 242.704 654.655C244.753 668.178 253.359 687.951 261.452 697.684C262.374 698.811 264.731 701.679 266.677 704.036C269.955 707.929 272.004 709.875 283.376 719.403C288.806 724.013 308.272 733.439 318.107 736.205C325.278 738.254 328.557 738.561 344.744 738.561C360.726 738.459 364.312 738.152 371.381 736.103C379.884 733.746 398.837 725.345 399.35 723.706C399.555 723.194 400.169 722.784 400.682 722.784C401.911 722.784 412.258 714.793 417.586 709.773C423.528 704.138 432.851 691.127 437.359 682.009C448.423 659.777 451.292 636.009 445.759 612.65C442.584 599.229 436.846 586.013 430.597 577.305C419.942 562.757 409.595 553.229 395.457 545.136L388.797 541.345L485.612 541.653C538.886 541.858 592.775 542.062 605.479 542.267C630.067 542.575 629.452 542.37 620.846 546.775C617.978 548.209 604.967 558.147 601.893 561.323C597.078 566.138 589.087 575.973 589.087 576.998C589.087 577.613 588.677 578.33 588.165 578.535C586.628 579.047 579.354 593.8 576.588 601.893C572.9 612.753 570.646 625.559 570.646 635.702C570.646 649.43 574.437 667.154 579.457 676.989C580.276 678.628 580.891 680.472 580.891 681.189C580.891 681.907 581.813 683.546 582.94 684.878C584.067 686.209 584.989 687.746 584.989 688.463C584.989 689.078 585.808 690.512 586.833 691.639C587.755 692.664 589.804 695.43 591.238 697.786C597.283 706.904 616.441 723.501 624.535 726.575C625.661 726.882 626.686 727.497 626.993 727.907C628.018 729.136 641.029 734.361 648.508 736.41C654.962 738.152 659.163 738.561 674.12 738.561C689.59 738.561 693.278 738.254 700.757 736.205C712.539 733.029 728.931 724.936 737.844 717.764C746.04 711.207 758.232 698.401 760.588 693.893C760.998 693.176 762.432 690.717 763.764 688.463C765.198 686.209 766.837 683.238 767.452 681.804C768.067 680.37 769.194 678.116 769.911 676.682C773.497 669.51 776.98 654.245 778.209 640.722C778.926 631.911 776.673 614.495 773.394 604.454C769.911 593.8 762.739 579.969 756.592 572.183C752.802 567.265 736.307 551.693 734.975 551.693C734.156 551.693 733.541 551.283 733.541 550.668C733.541 550.156 731.595 548.619 729.341 547.39C726.984 546.058 724.116 544.419 722.886 543.804C721.145 542.78 733.951 542.472 787.122 542.472H853.408V532.125C853.408 521.777 853.408 521.777 849.617 516.552C842.445 506.82 841.216 505.078 837.835 499.546C831.688 489.608 830.049 486.739 825.746 477.929C819.292 464.61 818.779 463.483 816.526 456.927C801.363 413.59 798.802 372.303 808.432 322.717C811.403 307.555 816.526 288.192 819.702 279.791C820.828 277.025 821.648 274.258 821.648 273.541C821.648 272.312 824.414 264.833 827.385 257.969C828.205 256.227 828.82 254.281 828.82 253.768C828.82 253.154 829.742 251.002 830.766 248.748C831.791 246.597 833.942 241.884 835.479 238.196C839.679 228.053 857.608 192.606 861.808 185.947C862.73 184.512 864.472 181.439 865.804 179.082C871.644 168.735 893.568 135.029 895.31 133.697C895.719 133.39 898.281 129.804 901.047 125.706C903.71 121.71 906.272 118.33 906.681 118.33C906.989 118.33 909.755 114.846 912.726 110.646C915.8 106.445 918.668 102.962 919.078 102.962C919.59 102.962 920 91.8976 920 78.3742V53.7862H799.621H679.14L674.325 56.3474C668.486 59.4209 667.871 59.8307 656.396 67.5145C651.479 70.8953 644.205 76.8374 640.209 80.833C633.448 87.5947 624.432 99.274 623.1 102.962C622.793 103.782 622.076 105.216 621.461 106.036C619.822 108.085 616.441 116.998 613.675 126.526C611.626 133.287 611.318 136.566 611.318 152.65C611.318 169.862 611.523 171.911 614.494 183.385C621.256 209.817 628.12 226.004 642.668 249.978C647.586 258.174 655.987 270.468 656.909 270.775C657.318 270.98 657.728 271.595 657.728 272.107C657.728 272.722 658.65 274.156 659.777 275.385C662.543 278.254 666.949 287.679 667.666 292.085C668.895 299.768 663.056 306.428 653.118 308.477C647.278 309.604 228.975 308.989 223.546 307.76C221.087 307.247 218.013 306.018 216.579 305.096C213.096 302.842 210.022 296.08 210.022 290.958C210.022 286.655 212.891 274.156 215.145 268.419C215.862 266.677 216.989 262.989 217.706 260.223C218.423 257.354 220.165 251.207 221.599 246.392C222.931 241.577 224.365 236.557 224.673 235.123C224.98 233.688 226.004 230.205 226.926 227.439C227.849 224.57 229.488 219.345 230.512 215.657C231.639 211.969 233.381 206.027 234.508 202.339C235.532 198.65 237.171 192.913 238.094 189.532C239.118 186.151 240.757 180.414 241.782 176.726C244.241 168.53 247.416 157.568 249.568 150.089C251.105 144.659 252.129 141.176 257.047 124.989C258.174 120.993 260.837 112.08 262.784 105.011C264.731 97.9421 267.189 89.4388 268.316 86.0579C269.341 82.6771 271.287 76.2227 272.517 71.7149C273.746 67.2071 275.385 61.6748 276.102 59.4209C279.381 49.176 279.996 43.951 278.356 41.3898C275.488 36.6771 267.189 23.5635 264.833 19.9777C263.604 18.0312 260.325 12.9087 257.661 8.70824C254.895 4.5078 252.641 0.8196 252.437 0.614701C252.232 0.409801 215.862 0.204901 171.604 0.102451L91.0779 1.12504e-06L89.1314 3.38085Z" fill="black"/>
</svg>
