<?xml version="1.0" standalone="no"?>
<!DOCTYPE svg PUBLIC "-//W3C//DTD SVG 20010904//EN" "http://www.w3.org/TR/2001/REC-SVG-20010904/DTD/svg10.dtd">
<svg xmlns="http://www.w3.org/2000/svg" version="1.0" width="800.000000pt" height="800.000000pt" viewBox="0 0 800.000000 800.000000" preserveAspectRatio="xMidYMid meet">
<metadata>
Created by potrace 1.16, written by Peter Selinger 2001-2019
<meta name="Producer" content="Online-Convert"/></metadata>
<g transform="translate(0.000000,800.000000) scale(0.100000,-0.100000)" fill="#000000" stroke="none">
<path d="M4116 6679 c-60 -14 -136 -60 -152 -92 -23 -43 -10 -83 38 -118 l41 -29 -36 0 -36 0 -3 -77 -3 -78 -167 -3 -167 -2 -34 52 c-46 72 -126 142 -195 170 -47 19 -76 23 -162 23 -99 0 -110 -2 -171 -32 -314 -155 -316 -590 -4 -744 67 -32 74 -34 180 -34 104 0 114 2 177 33 44 22 84 52 122 92 l55 60 185 0 186 0 0 -235 0 -235 -58 0 c-32 0 -63 -5 -70 -12 -8 -8 -12 -47 -12 -108 l0 -97 -117 -103 c-149 -131 -208 -192 -244 -255 -51 -89 -31 -139 61 -151 46 -6 50 -9 50 -33 0 -38 -31 -94 -60 -108 -19 -10 -169 -13 -642 -13 l-618 0 0 183 c0 216 -14 289 -82 420 -124 240 -397 368 -663 312 -122 -26 -207 -76 -315 -184 -136 -137 -190 -239 -295 -556 -214 -643 -217 -1224 -9 -1680 63 -139 213 -299 338 -360 193 -95 351 -59 532 120 106 105 201 243 274 398 l50 107 469 0 c257 0 529 -3 604 -7 l137 -6 0 -39 c0 -49 38 -91 98 -108 29 -7 219 -10 629 -8 533 3 591 5 619 20 44 24 84 75 84 105 l0 26 463 -6 c258 -4 488 -11 522 -17 89 -17 211 -79 272 -140 59 -59 113 -156 138 -245 17 -61 20 -166 43 -1230 l7 -340 537 0 c295 0 539 3 541 5 3 3 1 448 -4 990 -7 812 -12 1006 -25 1103 -43 316 -144 535 -339 732 -153 155 -315 252 -536 323 -194 62 -285 70 -931 81 l-438 7 -29 28 c-33 32 -57 106 -38 118 7 4 27 8 45 8 61 0 112 40 112 87 0 10 -11 41 -24 69 -20 44 -49 71 -199 195 l-176 144 0 93 c-1 125 -5 132 -86 132 l-65 0 0 235 0 235 233 0 232 -1 32 -43 c37 -50 136 -120 196 -138 71 -22 222 -16 290 11 82 32 177 124 220 210 30 63 32 72 32 181 0 109 -2 118 -32 181 -20 41 -53 85 -88 118 -204 194 -518 148 -660 -96 l-19 -33 -218 0 -218 0 0 75 0 75 -47 0 -47 0 34 25 c42 31 53 50 52 88 -2 77 -128 138 -282 136 -41 -1 -93 -5 -114 -10z m1347 -302 c91 -38 167 -154 167 -256 0 -64 -27 -135 -71 -185 -137 -156 -372 -129 -467 54 -32 61 -34 70 -30 140 5 85 27 137 80 189 88 87 204 108 321 58z m-2102 -7 c56 -28 105 -74 132 -125 31 -57 31 -193 0 -250 -90 -170 -317 -204 -450 -67 -66 68 -91 184 -61 286 18 59 110 150 174 170 63 20 148 15 205 -14z m995 -85 c68 -44 104 -110 104 -189 -1 -199 -246 -292 -377 -143 -110 125 -43 327 118 355 51 9 123 -1 155 -23z m-38 -463 c9 -7 12 -64 10 -253 l-3 -244 -85 0 -85 0 -3 240 c-1 132 0 245 2 252 6 15 142 18 164 5z m-2598 -603 c80 -13 171 -60 216 -113 83 -97 116 -221 112 -419 l-3 -132 -131 -3 -132 -3 -49 -52 c-99 -105 -171 -268 -194 -442 -24 -180 3 -444 66 -650 l26 -85 105 0 106 0 -6 -27 c-4 -16 -32 -79 -63 -140 -130 -264 -282 -360 -442 -279 -102 52 -188 158 -251 309 -150 360 -160 857 -26 1334 41 144 94 292 142 391 80 165 226 287 374 311 76 12 77 12 150 0z m2990 -959 l0 -90 31 0 c25 0 47 14 106 70 l75 70 565 0 c578 0 642 -3 781 -41 352 -97 608 -381 713 -793 47 -183 48 -197 54 -1033 3 -439 8 -831 11 -870 l5 -73 -289 0 c-159 0 -310 3 -334 6 l-45 6 -8 437 c-11 705 -20 903 -44 994 -69 263 -258 440 -546 513 l-100 25 -515 -2 -515 -2 -15 39 c-8 22 -19 45 -23 52 -18 27 -91 72 -118 72 -23 0 -29 -6 -39 -36 -20 -59 -7 -116 40 -189 46 -71 45 -88 -8 -99 -15 -3 -228 -2 -475 2 -395 7 -449 10 -464 24 -19 20 -12 33 56 112 39 45 41 50 41 114 0 102 -31 133 -99 97 -31 -16 -67 -55 -93 -104 l-17 -31 -818 2 -818 3 -13 75 c-19 111 -10 353 17 454 22 84 76 204 111 249 l21 27 825 0 824 0 69 -70 c56 -57 74 -70 99 -70 l32 0 0 75 0 75 460 0 460 0 0 -90z"/>
<path d="M1455 4945 c-181 -189 -298 -490 -334 -859 -19 -189 -9 -432 24 -645 26 -163 113 -308 210 -352 48 -22 152 -25 198 -5 67 28 101 100 67 141 -11 14 -26 15 -81 10 -55 -6 -75 -3 -112 13 -59 26 -76 60 -89 180 -15 135 -15 564 0 697 37 319 113 534 232 656 l55 56 -51 77 c-28 42 -54 79 -57 82 -4 4 -31 -19 -62 -51z"/>
<path d="M3620 2915 l0 -95 423 2 422 3 0 90 0 90 -422 3 -423 2 0 -95z"/>
</g>
</svg>
