<svg width="890" height="890" viewBox="0 0 890 890" fill="none" xmlns="http://www.w3.org/2000/svg">
<path d="M429.336 125.343C370.967 131.346 322.732 152.801 293.868 185.485C271.932 210.275 262.182 235.955 262.182 269.194C262.182 295.096 266.544 311.993 284.632 356.46C301.694 398.481 305.799 410.821 309.391 431.609C315.42 466.293 318.884 477.521 324.657 480.856C331.199 484.525 333.252 489.305 344.027 525.546C346.337 533.438 350.442 550.781 352.879 563.898C355.445 577.127 358.267 591.468 359.422 595.914C360.448 600.361 361.346 607.476 361.346 611.7C361.346 616.036 361.987 620.482 362.629 621.705C366.092 627.264 379.049 628.598 398.548 625.374C404.321 624.484 409.324 623.929 409.709 624.262C411.377 625.707 395.341 630.376 383.411 632.044C365.836 634.378 358.78 637.602 358.78 643.383C358.78 644.939 360.191 647.385 361.987 648.83C365.066 651.609 365.451 651.609 387.131 651.609H409.196L406.117 654.5C401.627 658.613 399.19 659.502 388.029 661.17C375.2 663.171 364.681 666.617 359.55 670.619C356.214 673.176 355.83 674.065 356.984 675.733C358.908 678.512 365.836 678.845 382 676.622C397.265 674.621 409.452 673.954 410.735 675.177C411.248 675.621 410.735 677.178 409.709 678.734C407.015 682.291 397.265 685.293 379.947 688.183C372.25 689.406 365.579 691.074 364.938 691.852C361.346 696.743 366.477 703.413 374.816 704.414C379.947 705.081 404.834 703.413 410.479 701.968C414.327 701.079 412.659 705.081 408.041 707.749C405.732 709.083 398.676 711.751 392.262 713.752C385.848 715.753 379.434 718.199 378.023 719.199C375.457 721.089 375.457 721.089 378.664 727.648C382.256 735.207 385.72 738.765 392.775 741.988C397.137 743.989 400.216 744.434 412.403 744.545L426.899 744.656L430.747 750.326C437.162 760.109 447.04 765 460.381 765C472.44 765 476.16 762.888 483.857 751.882C487.449 746.769 491.682 741.877 493.478 740.988C495.274 740.21 500.406 739.543 505.152 739.432C512.978 739.432 514.389 739.098 521.573 734.874C529.398 730.427 535.427 724.757 540.687 717.087C547.743 706.971 541.842 700.301 523.24 697.188C513.234 695.409 469.874 696.41 453.71 698.744C447.424 699.634 442.293 699.856 441.523 699.3C438.829 697.077 444.73 695.187 459.483 693.519C492.324 689.629 540.43 682.403 543.124 680.957C546.973 678.845 548.384 672.064 545.69 669.618C542.611 667.062 522.086 667.617 493.478 671.064C463.332 674.732 448.579 675.733 448.579 674.065C448.579 673.287 451.53 671.508 455.25 669.841C462.434 666.728 479.367 663.727 501.175 661.614C521.06 659.725 537.48 655.5 540.302 651.609C541.97 649.275 539.661 644.939 535.812 643.272C529.27 640.381 519.135 641.271 492.709 647.163C462.69 653.833 454.737 654.277 447.296 649.386C444.987 647.83 444.474 646.94 445.5 646.051C446.27 645.384 454.993 643.605 464.743 642.049C491.426 637.936 510.669 634.267 524.267 630.488C541.2 625.818 541.328 625.707 535.556 621.038C528.5 615.258 523.369 614.591 508.873 617.259C492.324 620.26 478.726 621.149 477.443 619.371C476.93 618.704 477.058 617.592 477.571 617.147C478.213 616.592 489.373 614.702 502.33 612.812C515.287 610.922 527.987 608.588 530.553 607.476C534.914 605.586 535.171 605.03 536.069 598.805C537.352 590.134 539.532 584.575 549.923 563.787C559.288 545 562.239 536.106 567.242 511.538C571.219 491.306 571.732 489.638 578.274 478.744C585.843 465.96 586.741 463.403 589.05 446.283C590.461 436.056 593.155 424.383 597.389 410.932C611.885 364.798 617.016 345.566 622.404 316.44C632.025 264.969 629.331 226.95 614.066 199.381C594.823 164.474 545.947 135.904 490.913 127.455C479.239 125.677 439.471 124.343 429.336 125.343ZM517.083 153.913C533.503 157.693 549.539 164.474 555.311 170.032C557.749 172.367 563.008 179.037 566.985 184.818C570.834 190.598 577.376 198.047 581.353 201.382C587.126 206.384 588.922 208.83 591.103 214.722C595.464 226.95 597.389 239.845 597.389 256.298C597.389 279.755 593.797 298.875 582.636 335.338C564.804 393.368 543.766 474.853 534.016 523.767C527.859 553.893 522.471 572.347 516.954 581.907C512.978 588.911 506.05 591.69 491.682 592.468L481.548 593.024L482.446 590.356C484.883 583.575 484.627 566.01 482.061 548.001C478.854 526.101 478.726 511.427 481.291 493.196C484.37 471.963 483.985 465.849 478.469 451.953C474.364 441.281 473.851 438.502 473.723 428.163L473.594 416.49L491.169 378.582C527.859 299.654 535.556 279.866 541.713 249.184C544.664 234.398 543.766 216.167 539.917 208.607C536.325 201.826 532.862 198.491 526.319 195.601C516.441 191.265 508.488 196.046 495.403 214.166C485.781 227.506 471.542 251.852 454.865 283.645C441.523 309.214 437.931 313.994 436.52 307.88C436.264 306.435 435.366 300.098 434.596 293.65C431.261 266.303 421.254 233.398 412.531 220.836C407.528 213.61 403.551 211.387 395.726 211.387C388.542 211.387 385.335 213.388 379.177 221.725C360.961 246.182 361.217 291.427 380.075 357.349C388.542 387.476 395.982 407.375 404.962 424.272C409.709 433.499 414.327 443.949 415.097 447.506C417.149 457.289 416.765 476.743 413.942 504.868C409.965 543.555 410.992 564.009 417.149 575.904C418.945 579.128 420.356 582.019 420.356 582.241C420.356 582.908 395.726 582.686 390.595 582.019C386.233 581.352 385.72 580.907 384.95 577.238C379.177 546.667 369.428 514.762 358.267 490.639C347.876 467.961 345.182 459.512 340.82 437.056C335.304 408.375 332.61 400.482 316.061 364.686C298.23 326.445 291.687 306.657 289.25 283.201C287.326 264.636 288.609 256.854 295.664 244.959C298.487 240.29 302.335 231.619 304.259 225.838C306.055 220.058 309.134 212.832 311.058 209.941C315.292 203.16 332.995 188.375 344.797 181.816C364.425 170.811 393.673 160.583 420.613 155.358C442.934 151.023 450.888 150.356 478.726 150.689C501.56 151.023 505.794 151.356 517.083 153.913ZM516.57 244.626C512.593 281.644 502.33 308.88 472.312 362.463C463.588 377.915 456.148 390.811 455.891 391.033C454.737 392.145 446.911 374.914 446.013 369.133C444.089 357.572 447.681 340.785 455.635 324.221C460.125 314.772 480.522 279.755 494.505 257.521C504.896 240.846 516.954 225.838 517.724 228.729C517.981 229.84 517.468 236.955 516.57 244.626ZM400.601 236.288C405.732 243.18 410.35 266.414 414.584 307.213C421.126 369.355 426.001 392.034 436.649 407.819L439.727 412.488L435.879 414.156C428.823 417.38 427.027 416.602 422.922 408.931C409.196 382.696 383.282 275.197 386.361 257.632C388.542 245.293 393.93 233.62 397.265 233.62C397.907 233.62 399.446 234.843 400.601 236.288ZM452.941 450.285C454.608 452.509 456.404 474.297 458.2 512.094C459.227 534.328 460.894 557.673 461.921 564.009C463.845 575.793 467.052 589.578 468.463 592.913C469.233 594.692 468.591 594.914 463.717 594.914C459.483 594.914 455.121 593.691 447.809 590.467C442.293 588.022 437.033 586.021 436.135 586.021C433.313 586.021 433.313 584.242 435.879 579.684C442.678 567.678 443.704 547.557 438.829 515.985C435.879 496.309 435.751 468.406 438.573 460.401C441.652 452.064 444.089 449.285 448.579 449.285C450.632 449.285 452.556 449.729 452.941 450.285ZM501.175 716.642C505.152 720.755 497.84 724.646 483.216 726.091C470.644 727.314 468.848 728.204 464.999 734.095C460.125 741.766 457.431 741.877 441.267 735.318C433.698 732.094 425.231 729.204 422.666 728.871C419.972 728.426 417.791 727.759 417.791 727.314C417.791 726.981 431.517 724.646 448.322 722.312C464.999 719.866 481.291 717.309 484.499 716.531C492.58 714.641 499.251 714.641 501.175 716.642Z" fill="black"/>
<path d="M719.772 136.904C715.154 138.461 702.325 145.909 691.549 153.135C672.178 166.141 661.146 180.593 666.919 185.596C669.356 187.708 678.079 187.152 684.494 184.262C687.701 182.817 697.065 177.592 705.147 172.589C713.229 167.698 722.851 162.251 726.571 160.694C734.268 157.359 736.449 155.581 739.143 149.911C741.837 144.241 741.58 141.685 737.86 138.572C735.422 136.349 733.498 135.793 728.623 135.904C725.288 135.904 721.311 136.349 719.772 136.904Z" fill="black"/>
<path d="M179.567 161.028C173.923 162.918 182.902 172.367 194.833 177.258C207.405 182.483 227.289 189.487 232.035 190.376C238.321 191.71 243.324 190.043 243.324 186.708C243.324 183.15 239.219 177.703 234.088 174.257C228.187 170.477 211.895 164.029 202.786 161.917C195.603 160.361 182.902 159.805 179.567 161.028Z" fill="black"/>
<path d="M142.493 259.633C136.207 262.079 135.181 266.414 139.671 272.084C144.033 277.642 148.522 279.31 162.377 280.422C169.304 280.977 181.363 282.423 188.932 283.534C204.326 285.758 208.944 285.202 209.714 280.755C210.484 275.864 189.958 264.969 171.87 260.856C160.838 258.188 147.368 257.632 142.493 259.633Z" fill="black"/>
<path d="M724.39 274.641C717.719 276.419 708.996 278.865 705.019 280.199C691.164 284.757 679.747 296.763 683.082 303.1C683.98 304.656 685.52 306.212 686.674 306.657C688.855 307.324 713.614 303.433 748.764 296.874C763.003 294.206 766.595 293.095 769.033 290.76C772.496 287.314 772.625 284.424 769.289 279.754C763.132 271.195 745.3 269.082 724.39 274.641Z" fill="black"/>
<path d="M175.847 375.247C154.808 378.693 133 387.809 133 393.256C133 395.813 140.44 400.149 147.24 401.483C164.301 405.04 204.967 398.148 216.128 389.81L219.592 387.142L217.154 383.14C212.921 376.248 208.559 374.358 195.988 374.024C189.958 373.913 180.85 374.469 175.847 375.247Z" fill="black"/>
<path d="M677.309 387.142C674.872 389.366 675.257 394.146 678.336 397.481C681.415 400.816 690.138 405.596 696.424 407.152C703.223 408.82 743.376 412.822 753.51 412.822C776.601 412.822 779.937 402.261 759.411 394.035C750.816 390.588 737.603 388.476 718.617 387.698C710.15 387.365 697.707 386.698 691.036 386.364C682.056 385.919 678.464 386.142 677.309 387.142Z" fill="black"/>
<path d="M239.347 478.522C234.344 480.189 229.341 483.191 214.845 493.196C209.457 496.864 200.606 502.312 195.089 505.313C177.899 514.762 158.785 532.216 160.581 536.996C162.505 542.332 167.252 540.887 197.142 526.212C214.589 517.764 253.715 495.308 259.616 490.528C263.08 487.86 263.593 486.748 262.695 484.636C260.258 478.744 248.327 475.631 239.347 478.522Z" fill="black"/>
<path d="M666.534 505.091C664.866 508.537 666.79 512.428 673.333 518.097C679.619 523.656 687.829 527.88 713.486 538.774C738.373 549.335 744.659 550.892 748.764 547.668C751.971 545.111 751.971 542.554 748.892 537.218C740.297 522.655 705.532 506.758 674.103 503.09C668.458 502.423 667.945 502.534 666.534 505.091Z" fill="black"/>
<path d="M284.889 555.116C268.468 566.01 240.374 591.579 230.111 604.919C223.056 613.924 223.825 616.369 233.318 616.258C246.275 616.036 255.64 610.255 291.174 580.907L307.595 567.344L304.773 562.453C299 552.448 292.586 550.002 284.889 555.116Z" fill="black"/>
<path d="M617.144 582.241C615.092 584.798 615.092 585.354 616.888 588.577C620.993 595.914 633.693 609.143 654.09 626.819C665.507 636.935 676.283 645.606 677.951 646.162C679.49 646.718 682.056 646.718 683.724 646.162C687.444 644.939 694.885 637.713 694.885 635.379C694.885 631.488 671.409 608.81 655.116 596.915C631.897 580.018 621.763 576.127 617.144 582.241Z" fill="black"/>
</svg>
