<svg width="869" height="717" viewBox="0 0 869 717" fill="none" xmlns="http://www.w3.org/2000/svg">
<path d="M449.838 1.33967C441.838 3.20633 431.704 9.33967 429.571 13.6063C426.504 19.3397 428.238 24.673 434.638 29.3397L440.104 33.2063H435.304H430.504L430.104 43.473L429.704 53.873L407.438 54.273L385.171 54.5397L380.638 47.6063C374.504 38.0063 363.838 28.673 354.638 24.9397C348.371 22.4063 344.504 21.873 333.038 21.873C319.838 21.873 318.371 22.1397 310.238 26.1397C268.371 46.8063 268.104 104.806 309.704 125.34C318.638 129.606 319.571 129.873 333.704 129.873C347.571 129.873 348.904 129.606 357.304 125.473C363.171 122.54 368.504 118.54 373.571 113.206L380.904 105.206H405.571H430.371V136.54V167.873H422.638C418.371 167.873 414.238 168.54 413.304 169.473C412.238 170.54 411.704 175.74 411.704 183.873V196.806L396.104 210.54C376.238 228.006 368.371 236.14 363.571 244.54C356.771 256.406 359.438 263.073 371.704 264.673C377.838 265.473 378.371 265.873 378.371 269.073C378.371 274.14 374.238 281.606 370.371 283.473C367.838 284.806 347.838 285.206 284.771 285.206H202.371V260.806C202.371 232.006 200.504 222.273 191.438 204.806C174.904 172.806 138.504 155.74 103.038 163.206C86.7709 166.673 75.4376 173.34 61.0376 187.74C42.9043 206.006 35.7043 219.606 21.7043 261.873C-6.82907 347.606 -7.22907 425.073 20.5043 485.873C28.9043 504.406 48.9043 525.74 65.5709 533.873C91.3043 546.54 112.371 541.74 136.504 517.873C150.638 503.873 163.304 485.473 173.038 464.806L179.704 450.54H242.238C276.504 450.54 312.771 450.94 322.771 451.473L341.038 452.273V457.473C341.038 464.006 346.104 469.606 354.104 471.873C357.971 472.806 383.304 473.206 437.971 472.94C509.038 472.54 516.771 472.273 520.504 470.273C526.371 467.073 531.704 460.273 531.704 456.273V452.806L593.438 453.606C627.838 454.14 658.504 455.073 663.038 455.873C674.904 458.14 691.171 466.406 699.304 474.54C707.171 482.406 714.371 495.34 717.704 507.206C719.971 515.34 720.371 529.34 723.438 671.206L724.371 716.54H795.971C835.304 716.54 867.838 716.14 868.104 715.873C868.504 715.473 868.238 656.14 867.571 583.873C866.638 475.606 865.971 449.74 864.238 436.806C858.504 394.673 845.038 365.473 819.038 339.206C798.638 318.54 777.038 305.606 747.571 296.14C721.704 287.873 709.571 286.806 623.438 285.34L565.038 284.406L561.171 280.673C556.771 276.406 553.571 266.54 556.104 264.94C557.038 264.406 559.704 263.873 562.104 263.873C570.238 263.873 577.038 258.54 577.038 252.273C577.038 250.94 575.571 246.806 573.838 243.073C571.171 237.206 567.304 233.606 547.304 217.073L523.838 197.873V185.473C523.704 168.806 523.171 167.873 512.371 167.873H503.704V136.54V105.206H534.771L565.704 105.34L569.971 111.073C574.904 117.74 588.104 127.073 596.104 129.473C605.571 132.406 625.704 131.606 634.771 128.006C645.704 123.74 658.371 111.473 664.104 100.006C668.104 91.6063 668.371 90.4063 668.371 75.873C668.371 61.3397 668.104 60.1397 664.104 51.7397C661.438 46.273 657.038 40.4063 652.371 36.0063C625.171 10.1397 583.304 16.273 564.371 48.8063L561.838 53.2063H532.771H503.704V43.2063V33.2063H497.438H491.171L495.704 29.873C501.304 25.7397 502.771 23.2063 502.638 18.1397C502.371 7.873 485.571 -0.260334 465.038 0.00633267C459.571 0.139666 452.638 0.672999 449.838 1.33967ZM629.438 41.6063C641.571 46.673 651.704 62.1397 651.704 75.7397C651.704 84.273 648.104 93.7397 642.238 100.406C623.971 121.206 592.638 117.606 579.971 93.2063C575.704 85.073 575.438 83.873 575.971 74.5397C576.638 63.2063 579.571 56.273 586.638 49.3397C598.371 37.7397 613.838 34.9397 629.438 41.6063ZM349.171 42.5397C356.638 46.273 363.171 52.4063 366.771 59.2063C370.904 66.8063 370.904 84.9397 366.771 92.5397C354.771 115.206 324.504 119.74 306.771 101.473C297.971 92.4063 294.638 76.9397 298.638 63.3397C301.038 55.473 313.304 43.3397 321.838 40.673C330.238 38.0063 341.571 38.673 349.171 42.5397ZM481.838 53.873C490.904 59.7397 495.704 68.5397 495.704 79.073C495.571 105.606 462.904 118.006 445.438 98.1397C430.771 81.473 439.704 54.5397 461.171 50.8063C467.971 49.6063 477.571 50.9397 481.838 53.873ZM476.771 115.606C477.971 116.54 478.371 124.14 478.104 149.34L477.704 181.873H466.371H455.038L454.638 149.873C454.504 132.273 454.638 117.206 454.904 116.273C455.704 114.273 473.838 113.873 476.771 115.606ZM130.371 196.006C141.038 197.74 153.171 204.006 159.171 211.073C170.238 224.006 174.638 240.54 174.104 266.94L173.704 284.54L156.238 284.94L138.638 285.34L132.104 292.273C118.904 306.273 109.304 328.006 106.238 351.206C103.038 375.206 106.638 410.406 115.038 437.873L118.504 449.206H132.504H146.638L145.838 452.806C145.304 454.94 141.571 463.34 137.438 471.473C120.104 506.673 99.8376 519.473 78.5043 508.673C64.9043 501.74 53.4376 487.606 45.0376 467.473C25.0376 419.473 23.7043 353.206 41.5709 289.606C47.0376 270.406 54.1043 250.673 60.5043 237.473C71.1709 215.473 90.6376 199.206 110.371 196.006C120.504 194.406 120.638 194.406 130.371 196.006ZM529.038 323.873V335.873H533.171C536.504 335.873 539.438 334.006 547.304 326.54L557.304 317.206H632.638C709.704 317.206 718.238 317.606 736.771 322.673C783.704 335.606 817.838 373.473 831.838 428.406C838.104 452.806 838.238 454.673 839.038 566.14C839.438 624.673 840.104 676.94 840.504 682.14L841.171 691.873H802.638C781.438 691.873 761.304 691.473 758.104 691.073L752.104 690.273L751.038 632.006C749.571 538.006 748.371 511.606 745.171 499.473C735.971 464.406 710.771 440.806 672.371 431.073L659.038 427.74L590.371 428.006L521.704 428.273L519.704 423.073C518.638 420.14 517.171 417.073 516.638 416.14C514.238 412.54 504.504 406.54 500.904 406.54C497.838 406.54 497.038 407.34 495.704 411.34C493.038 419.206 494.771 426.806 501.038 436.54C507.171 446.006 507.038 448.273 499.971 449.74C497.971 450.14 469.571 450.006 436.638 449.473C383.971 448.54 376.771 448.14 374.771 446.273C372.238 443.606 373.171 441.873 382.238 431.34C387.438 425.34 387.704 424.673 387.704 416.14C387.704 402.54 383.571 398.406 374.504 403.206C370.371 405.34 365.571 410.54 362.104 417.073L359.838 421.206L250.771 420.94L141.704 420.54L139.971 410.54C137.438 395.74 138.638 363.473 142.238 350.006C145.171 338.806 152.371 322.806 157.038 316.806L159.838 313.206H269.838H379.704L388.904 322.54C396.371 330.14 398.771 331.873 402.104 331.873H406.371V321.873V311.873H467.704H529.038V323.873Z" fill="black"/>
<path d="M95.0376 232.54C70.9042 257.74 55.3042 297.873 50.5042 347.073C47.9709 372.273 49.3042 404.673 53.7042 433.073C57.1709 454.806 68.7709 474.14 81.7042 480.006C88.1042 482.94 101.971 483.34 108.104 480.673C117.038 476.94 121.571 467.34 117.038 461.873C115.571 460.006 113.571 459.873 106.238 460.54C98.9042 461.34 96.2376 460.94 91.3042 458.806C83.4376 455.34 81.1709 450.806 79.4376 434.806C77.4376 416.806 77.4376 359.606 79.4376 341.873C84.3709 299.34 94.5042 270.673 110.371 254.406L117.704 246.94L110.904 236.673C107.171 231.073 103.704 226.14 103.304 225.74C102.771 225.206 99.1709 228.273 95.0376 232.54Z" fill="black"/>
<path d="M383.704 503.206V515.873L440.104 515.606L496.371 515.206V503.206V491.206L440.104 490.806L383.704 490.54V503.206Z" fill="black"/>
</svg>
