<?xml version="1.0" standalone="no"?>
<!DOCTYPE svg PUBLIC "-//W3C//DTD SVG 20010904//EN"
 "http://www.w3.org/TR/2001/REC-SVG-20010904/DTD/svg10.dtd">
<svg version="1.0" xmlns="http://www.w3.org/2000/svg"
 width="480.000000pt" height="360.000000pt" viewBox="0 0 480.000000 360.000000"
 preserveAspectRatio="xMidYMid meet">

<g transform="translate(0.000000,360.000000) scale(0.100000,-0.100000)"
fill="#8b0f0fff" stroke="none">
<path d="M1677 3304 c-25 -32 -137 -178 -249 -324 -302 -394 -364 -474 -457
-595 -47 -60 -124 -161 -173 -224 -48 -63 -85 -117 -83 -122 3 -4 43 -10 90
-14 76 -7 86 -10 89 -29 8 -35 55 -887 62 -1098 4 -123 10 -203 18 -212 10
-14 152 -50 816 -210 100 -24 357 -86 878 -213 207 -50 235 -55 257 -43 23 12
65 61 265 305 37 44 171 208 300 365 l234 285 23 385 c12 212 25 444 29 516
l7 131 63 39 c35 22 63 43 61 47 -1 4 -90 108 -198 230 -108 122 -305 346
-438 497 -134 151 -252 278 -264 282 -12 4 -256 17 -542 28 -286 12 -570 24
-631 27 l-112 6 -45 -59z"/>
</g>
</svg>
