<?xml version="1.0" standalone="no"?>
<!DOCTYPE svg PUBLIC "-//W3C//DTD SVG 20010904//EN"
 "http://www.w3.org/TR/2001/REC-SVG-20010904/DTD/svg10.dtd">
<svg version="1.0" xmlns="http://www.w3.org/2000/svg"
 width="62.000000pt" height="43.000000pt" viewBox="0 0 62.000000 43.000000"
 preserveAspectRatio="xMidYMid meet">

<g transform="translate(0.000000,43.000000) scale(0.100000,-0.100000)"
fill="#000000" stroke="none">
<path d="M227 385 c-76 -28 -187 -129 -187 -170 0 -9 28 -45 63 -80 50 -50 75
-67 117 -79 118 -35 206 -12 297 79 35 36 63 72 63 83 0 11 -26 47 -59 80 -90
91 -196 123 -294 87z m167 -84 c26 -27 31 -39 31 -81 0 -43 -5 -54 -33 -82
-28 -28 -39 -33 -82 -33 -43 0 -54 5 -82 33 -28 28 -33 39 -33 81 0 52 25 92
70 112 37 16 96 3 129 -30z"/>
<path d="M270 260 c-11 -11 -20 -29 -20 -40 0 -26 34 -60 60 -60 26 0 60 34
60 60 0 11 -9 29 -20 40 -11 11 -29 20 -40 20 -11 0 -29 -9 -40 -20z"/>
</g>
</svg>
